<?xml version="1.0" standalone="no"?>
<!DOCTYPE svg PUBLIC "-//W3C//DTD SVG 20010904//EN"
 "http://www.w3.org/TR/2001/REC-SVG-20010904/DTD/svg10.dtd">
<svg version="1.0" xmlns="http://www.w3.org/2000/svg"
 width="200.000000pt" height="200.000000pt" viewBox="0 0 200.000000 200.000000"
 preserveAspectRatio="xMidYMid meet">

<g transform="translate(0.000000,200.000000) scale(0.100000,-0.100000)"
fill="#000000" stroke="none">
<path d="M891 1989 c-225 -27 -417 -118 -580 -274 -364 -349 -408 -908 -102
-1312 136 -181 332 -308 558 -365 125 -32 341 -32 466 0 226 57 422 184 558
365 306 404 262 963 -103 1313 -177 169 -390 262 -643 277 -44 3 -113 1 -154
-4z m354 -58 c187 -50 384 -178 503 -328 76 -94 155 -249 183 -358 26 -100 35
-284 20 -385 -47 -300 -234 -563 -504 -705 -518 -273 -1165 -19 -1353 532 -44
131 -58 224 -51 363 7 145 33 247 96 375 132 265 372 453 661 516 116 26 330
21 445 -10z"/>
<path d="M1067 1923 c-13 -12 -7 -40 13 -63 27 -31 25 -55 -7 -78 l-27 -19 23
-8 c17 -5 29 -1 47 16 l24 22 0 -21 c0 -14 8 -23 23 -26 68 -14 91 -15 103 -5
18 14 18 29 1 29 -7 0 -22 7 -33 16 -18 14 -17 15 19 9 40 -6 47 3 21 29 -22
22 -40 20 -62 -9 -34 -43 -45 -32 -38 37 8 67 5 68 -29 12 l-21 -35 -12 39
c-12 41 -34 67 -45 55z"/>
<path d="M861 1836 c-26 -50 -21 -70 15 -63 14 2 27 1 29 -4 3 -4 28 -7 57 -6
60 3 75 18 59 60 -13 34 -56 38 -64 6 -8 -31 -40 -20 -51 19 -5 17 -12 32 -15
32 -3 0 -17 -20 -30 -44z m149 -27 c0 -5 -4 -9 -10 -9 -5 0 -10 7 -10 16 0 8
5 12 10 9 6 -3 10 -10 10 -16z"/>
<path d="M616 1835 c-3 -8 6 -32 20 -52 24 -35 24 -38 8 -50 -12 -9 -21 -10
-28 -3 -16 16 -26 12 -26 -10 0 -34 -34 -23 -60 20 -27 44 -35 48 -44 23 -7
-16 29 -76 63 -108 15 -13 23 -14 45 -4 14 7 26 16 26 21 0 4 7 8 15 8 26 0
93 38 109 62 20 28 21 62 2 77 -19 16 -41 5 -56 -27 l-13 -27 -10 35 c-14 48
-39 65 -51 35z m114 -55 c0 -5 -9 -14 -20 -20 -22 -12 -27 -1 -8 18 14 14 28
16 28 2z"/>
<path d="M1351 1734 c-26 -33 -26 -36 -1 -59 39 -35 96 17 70 65 -15 28 -45
25 -69 -6z m43 -20 c4 -10 1 -14 -6 -12 -15 5 -23 28 -10 28 5 0 13 -7 16 -16z"/>
<path d="M1452 1694 c-33 -54 -34 -56 -15 -76 10 -11 33 -27 51 -35 17 -7 32
-18 32 -24 0 -7 10 -22 23 -34 33 -34 67 -76 67 -84 0 -4 9 -16 19 -25 23 -21
49 -15 81 19 21 23 22 25 5 31 -11 5 -22 1 -30 -9 -10 -15 -14 -15 -24 -3 -6
7 -8 22 -4 31 5 14 3 17 -10 12 -12 -5 -17 -1 -17 13 0 11 -6 19 -12 17 -7 -1
-12 6 -10 16 2 11 -4 17 -16 17 -26 0 -42 20 -42 52 0 25 2 27 30 22 23 -5 30
-3 30 9 0 8 5 17 11 19 7 2 -8 11 -32 21 -35 13 -40 13 -24 2 18 -14 17 -15
-13 -9 -32 6 -37 1 -33 -33 2 -17 -24 -17 -37 0 -8 10 -8 19 2 33 50 74 50 74
25 74 -18 0 -32 -14 -57 -56z"/>
<path d="M452 1678 c-5 -7 -13 -24 -17 -37 l-7 -23 -29 31 c-28 31 -49 34 -49
8 0 -7 17 -26 37 -43 33 -27 36 -34 24 -48 -7 -9 -22 -16 -33 -16 -10 0 -17
-4 -14 -9 8 -12 -3 -41 -15 -41 -5 0 -28 14 -52 31 -41 30 -42 30 -45 9 -4
-23 8 -35 76 -71 l43 -24 20 25 c11 14 42 48 69 76 55 57 65 97 32 127 -22 20
-27 21 -40 5z m18 -58 c-6 -11 -13 -20 -15 -20 -3 0 -5 9 -5 20 0 11 7 20 15
20 13 0 14 -4 5 -20z"/>
<path d="M855 1674 c-38 -8 -112 -36 -164 -61 -78 -37 -109 -59 -177 -127 -68
-69 -89 -98 -127 -177 -58 -121 -72 -180 -71 -309 0 -212 82 -387 248 -527
240 -204 632 -204 872 0 166 140 248 315 248 527 1 129 -13 188 -71 309 -38
79 -59 108 -127 177 -68 68 -99 90 -177 127 -152 74 -299 93 -454 61z m314
-40 c111 -29 200 -82 291 -174 133 -132 193 -273 193 -455 0 -176 -66 -337
-186 -458 -82 -82 -153 -127 -259 -165 -65 -23 -88 -26 -208 -26 -120 0 -143
3 -208 26 -106 38 -177 83 -259 165 -120 121 -186 282 -186 458 0 269 166 508
418 606 126 49 271 57 404 23z"/>
<path d="M845 1513 c-15 -32 -34 -75 -42 -95 l-15 -38 -114 0 -113 0 -3 -67
-3 -67 -57 -33 -58 -34 60 -89 60 -89 0 -201 0 -200 166 0 165 0 -1 88 c-1 48
-1 91 -1 95 1 5 26 -6 56 -23 l55 -31 55 31 c30 17 55 28 56 23 0 -4 0 -47 -1
-95 l-1 -88 165 0 166 0 0 200 0 201 60 89 60 89 -58 34 -57 33 -3 67 -3 67
-112 0 -113 0 -39 88 c-21 48 -41 90 -44 94 -3 4 -31 -8 -61 -27 -61 -38 -76
-41 -105 -22 -11 7 -36 23 -57 35 l-36 23 -27 -58z m138 -57 c12 -8 22 -8 35
0 9 5 34 20 55 33 l37 23 41 -86 41 -86 104 0 103 0 3 -57 c3 -60 3 -60 82
-108 14 -9 10 -19 -34 -85 l-50 -75 0 -187 0 -188 -120 0 -120 0 0 110 c0 64
-4 110 -10 110 -5 0 -38 -18 -72 -40 -35 -22 -70 -40 -78 -40 -8 0 -43 18 -78
40 -34 22 -67 40 -72 40 -6 0 -10 -46 -10 -110 l0 -110 -120 0 -120 0 0 188 0
187 -50 75 c-44 66 -48 76 -34 85 79 48 79 48 82 108 l3 57 103 0 104 0 41 86
41 86 37 -23 c21 -13 46 -28 56 -33z"/>
<path d="M867 1390 l-35 -79 81 -46 82 -47 63 34 c113 60 109 52 67 140 l-37
77 -46 -29 -45 -28 -36 22 c-20 12 -41 25 -47 29 -7 4 -25 -25 -47 -73z m169
-1 c20 12 38 21 39 19 14 -16 34 -71 30 -78 -4 -6 -29 -22 -58 -36 l-51 -26
-53 28 c-29 16 -53 32 -53 36 0 4 8 23 17 42 l16 35 38 -21 38 -21 37 22z"/>
<path d="M630 1261 c0 -48 -1 -50 -45 -75 l-45 -27 36 -57 c19 -31 45 -65 56
-74 27 -24 162 -98 178 -98 9 0 11 23 9 87 l-4 87 70 43 c39 24 71 47 73 51 1
4 -38 31 -86 60 -86 51 -90 52 -165 52 l-77 0 0 -49z m196 -23 c30 -18 54 -36
54 -40 0 -4 -25 -22 -55 -40 l-55 -33 0 -62 c0 -35 -3 -63 -6 -63 -24 0 -116
67 -138 100 -14 22 -26 41 -26 43 0 1 16 11 35 21 32 17 35 23 35 63 l0 43 51
0 c40 0 63 -7 105 -32z"/>
<path d="M1127 1258 c-48 -29 -86 -56 -85 -60 2 -4 35 -27 73 -51 l70 -43 -4
-87 c-2 -64 0 -87 9 -87 16 0 151 74 178 98 11 9 37 43 56 74 l36 57 -45 27
c-44 25 -45 27 -45 75 l0 49 -77 0 c-76 0 -80 -2 -166 -52z m203 -31 c0 -40 3
-46 35 -63 19 -10 35 -20 35 -21 0 -2 -12 -21 -26 -43 -22 -33 -114 -100 -138
-100 -3 0 -6 28 -6 63 l0 62 -55 33 c-30 18 -55 36 -55 40 0 4 24 22 53 39 41
25 63 32 105 33 l52 0 0 -43z"/>
<path d="M915 1126 l-70 -43 -3 -82 c-2 -50 2 -88 8 -96 6 -7 42 -32 80 -54
l69 -41 75 46 76 45 0 92 0 92 -71 43 c-38 23 -75 42 -82 42 -7 0 -43 -20 -82
-44z m143 -31 l53 -30 -3 -73 -3 -74 -55 -31 -56 -30 -57 36 -57 37 0 64 0 64
58 36 c31 19 59 34 62 33 3 -1 29 -15 58 -32z"/>
<path d="M630 826 l0 -166 90 0 90 0 0 114 0 114 -82 47 c-46 26 -86 50 -90
52 -5 2 -8 -70 -8 -161z m103 57 l37 -23 0 -75 0 -75 -50 0 -50 0 0 106 c0 81
3 104 13 98 6 -4 29 -18 50 -31z"/>
<path d="M1278 939 l-88 -51 0 -114 0 -114 90 0 90 0 0 165 c0 91 -1 165 -2
165 -2 0 -42 -23 -90 -51z m52 -124 l0 -105 -50 0 -50 0 0 75 0 75 48 30 c26
16 48 30 50 30 1 0 2 -47 2 -105z"/>
<path d="M640 1640 c0 -5 5 -10 10 -10 6 0 10 5 10 10 0 6 -4 10 -10 10 -5 0
-10 -4 -10 -10z"/>
<path d="M1650 1570 c0 -5 5 -10 10 -10 6 0 10 5 10 10 0 6 -4 10 -10 10 -5 0
-10 -4 -10 -10z"/>
<path d="M1676 1563 c-4 -9 -2 -21 4 -27 7 -7 10 -7 10 1 0 6 3 18 6 27 3 9 2
16 -4 16 -5 0 -13 -8 -16 -17z"/>
<path d="M1745 1499 c-10 -15 3 -25 16 -12 7 7 7 13 1 17 -6 3 -14 1 -17 -5z"/>
<path d="M191 1484 c-1 -26 25 -39 33 -17 8 21 -3 31 -14 14 -6 -11 -9 -10
-13 5 -4 17 -5 17 -6 -2z"/>
<path d="M435 1480 c3 -5 10 -10 16 -10 5 0 9 5 9 10 0 6 -7 10 -16 10 -8 0
-12 -4 -9 -10z"/>
<path d="M250 1452 c0 -15 22 -30 36 -25 18 7 18 5 -6 -42 -23 -46 -25 -68 -6
-84 14 -12 26 -3 40 29 3 8 3 2 0 -15 -8 -43 -33 -67 -61 -60 -27 6 -30 -3 -5
-21 31 -24 70 -17 87 16 20 38 19 84 -1 101 -14 11 -19 9 -36 -11 -17 -23 -18
-23 -8 -3 6 13 19 27 30 33 28 15 25 54 -5 74 -25 17 -65 22 -65 8z"/>
<path d="M1710 1394 c-25 -20 -47 -38 -49 -40 -2 -2 7 -4 20 -4 13 0 48 14 78
31 40 23 50 33 40 40 -24 15 -42 9 -89 -27z"/>
<path d="M1700 1324 c-21 -25 -1 -68 34 -72 32 -4 76 30 76 60 0 28 -37 23
-44 -7 -4 -14 -10 -25 -15 -25 -14 0 -20 37 -8 49 8 8 5 11 -10 11 -11 0 -26
-7 -33 -16z"/>
<path d="M150 1076 c0 -9 7 -19 15 -22 22 -9 18 -41 -5 -47 -23 -6 -27 -27 -5
-27 7 0 37 5 65 11 42 9 50 14 50 33 0 17 -11 26 -52 42 -29 10 -56 21 -60 22
-4 2 -8 -4 -8 -12z m85 -46 c18 -8 17 -9 -7 -9 -16 -1 -28 4 -28 9 0 12 8 12
35 0z"/>
<path d="M1756 1072 c-11 -10 6 -22 30 -22 31 0 31 -16 -1 -24 -14 -4 -25 -13
-25 -21 0 -19 -1 -19 56 5 37 16 49 18 55 8 4 -7 11 -9 16 -5 17 17 -16 42
-70 53 -31 6 -59 9 -61 6z"/>
<path d="M1742 964 c-14 -10 -13 -13 4 -21 27 -14 108 -2 112 17 2 12 -9 15
-49 15 -29 0 -59 -5 -67 -11z"/>
<path d="M140 935 c0 -12 14 -15 65 -15 51 0 65 3 65 15 0 12 -14 15 -65 15
-51 0 -65 -3 -65 -15z"/>
<path d="M1725 901 c-3 -5 -1 -12 5 -16 5 -3 10 1 10 9 0 18 -6 21 -15 7z"/>
<path d="M1760 893 c0 -8 14 -14 35 -14 19 -1 40 -2 45 -3 6 -1 11 4 13 9 1 6
-19 12 -45 15 -36 4 -48 3 -48 -7z"/>
<path d="M173 883 c-34 -7 -30 -34 5 -28 15 2 44 7 65 10 20 3 37 10 37 15 0
10 -64 11 -107 3z"/>
<path d="M1748 825 c-9 -21 -9 -29 3 -41 14 -13 18 -12 43 7 15 12 30 18 34
14 4 -4 1 -10 -5 -12 -15 -5 -17 -23 -3 -23 14 0 31 37 24 54 -9 23 -40 20
-58 -6 -9 -12 -19 -19 -23 -15 -3 4 -1 13 5 19 15 15 15 28 2 28 -6 0 -16 -11
-22 -25z"/>
<path d="M220 822 c0 -4 5 -13 12 -20 6 -6 8 -15 5 -19 -4 -4 -14 3 -23 15
-17 24 -49 29 -56 10 -2 -7 1 -27 6 -44 11 -30 12 -31 51 -20 43 12 58 43 35
72 -13 15 -30 19 -30 6z m-15 -42 c3 -5 -1 -10 -9 -10 -8 0 -18 5 -21 10 -3 6
1 10 9 10 8 0 18 -4 21 -10z"/>
<path d="M1739 766 c-1 -3 -2 -9 -3 -13 -1 -5 -5 -14 -9 -21 -8 -12 3 -18 60
-36 34 -11 38 13 4 25 -17 6 -31 17 -31 24 0 14 -19 31 -21 21z"/>
<path d="M228 713 c-21 -9 -38 -22 -38 -30 0 -11 5 -13 18 -8 31 14 72 18 72
7 0 -6 -16 -16 -35 -23 -19 -7 -35 -19 -35 -27 0 -9 6 -12 18 -7 67 26 102 8
37 -19 -19 -8 -35 -20 -35 -25 0 -15 14 -14 55 3 37 16 41 25 26 54 -5 9 -17
34 -26 55 -9 20 -17 37 -18 36 -1 -1 -19 -8 -39 -16z"/>
<path d="M1701 666 c-32 -39 24 -97 67 -70 21 13 30 68 10 62 -7 -3 -12 -15
-10 -26 2 -15 -2 -22 -14 -22 -11 0 -15 6 -11 18 12 43 11 47 -9 50 -11 2 -26
-4 -33 -12z m29 -21 c0 -8 -4 -15 -10 -15 -5 0 -10 7 -10 15 0 8 5 15 10 15 6
0 10 -7 10 -15z"/>
<path d="M1666 591 c-4 -6 5 -22 21 -37 l28 -25 -25 7 c-38 11 -52 10 -57 -2
-2 -7 17 -15 46 -21 42 -8 51 -7 56 5 7 20 -59 90 -69 73z"/>
<path d="M297 562 c-39 -24 -32 -82 10 -82 21 0 15 17 -9 24 -19 4 -20 8 -10
18 11 11 17 9 33 -11 18 -22 21 -23 35 -9 19 19 11 54 -14 67 -12 6 -26 4 -45
-7z m44 -25 c-1 -12 -15 -9 -19 4 -3 6 1 10 8 8 6 -3 11 -8 11 -12z"/>
<path d="M1580 520 c0 -5 5 -10 10 -10 6 0 10 5 10 10 0 6 -4 10 -10 10 -5 0
-10 -4 -10 -10z"/>
<path d="M373 479 c-59 -54 -60 -80 -3 -37 22 16 33 19 41 11 7 -7 2 -17 -20
-32 -32 -23 -40 -41 -19 -41 17 0 68 51 68 67 0 8 -7 16 -15 19 -12 5 -13 9
-4 21 7 8 9 17 3 23 -5 5 -26 -7 -51 -31z"/>
<path d="M1606 501 c-6 -9 56 -61 73 -61 20 0 11 18 -23 44 -38 29 -42 30 -50
17z"/>
<path d="M1546 434 c-18 -25 -18 -26 10 -55 26 -28 54 -38 54 -21 0 5 -11 19
-25 32 -14 13 -25 27 -25 32 0 15 24 8 47 -14 16 -15 26 -19 34 -11 7 7 1 18
-21 37 -39 32 -50 32 -74 0z"/>
<path d="M1470 399 c0 -6 12 -26 26 -45 24 -31 27 -64 6 -64 -5 0 -23 18 -41
41 -23 28 -37 37 -44 30 -15 -15 49 -91 77 -91 25 0 56 28 56 51 0 17 -57 89
-71 89 -5 0 -9 -5 -9 -11z"/>
<path d="M530 385 c10 -12 6 -22 -20 -55 -22 -28 -29 -45 -23 -51 7 -7 21 3
43 31 25 31 37 39 54 35 16 -5 13 1 -14 25 -35 31 -62 41 -40 15z"/>
<path d="M585 301 c-7 -12 12 -24 24 -16 5 3 12 1 16 -5 4 -6 -6 -10 -23 -10
-31 0 -58 -22 -48 -39 4 -5 19 -16 35 -24 28 -14 29 -14 51 26 l23 40 -23 19
c-24 20 -46 23 -55 9z m23 -62 c-2 -6 -8 -10 -13 -10 -5 0 -11 4 -13 10 -2 6
4 11 13 11 9 0 15 -5 13 -11z"/>
<path d="M1310 300 c0 -5 5 -10 10 -10 6 0 10 5 10 10 0 6 -4 10 -10 10 -5 0
-10 -4 -10 -10z"/>
<path d="M677 243 c-23 -63 -22 -67 13 -80 26 -10 32 -9 45 10 21 30 19 68 -4
74 -13 3 -17 11 -14 24 4 12 0 19 -9 19 -8 0 -22 -21 -31 -47z m53 -12 c0 -5
-5 -22 -10 -37 -8 -20 -14 -24 -22 -16 -9 9 -9 18 0 37 11 24 32 35 32 16z"/>
<path d="M1265 280 c-3 -6 1 -17 9 -26 15 -14 16 -14 16 5 0 23 -16 36 -25 21z"/>
<path d="M1330 270 c0 -10 27 -69 36 -79 1 -1 7 0 13 4 7 4 4 20 -9 46 -19 37
-40 52 -40 29z"/>
<path d="M1057 234 c-4 -4 -5 -16 -2 -28 2 -12 7 -38 10 -58 5 -34 9 -38 34
-38 40 0 54 20 43 62 -6 26 -14 34 -35 36 -15 2 -27 10 -27 18 0 15 -12 19
-23 8z m61 -77 c2 -19 -1 -27 -12 -27 -11 0 -16 10 -16 31 0 38 24 35 28 -4z"/>
<path d="M793 223 c-24 -9 -13 -25 12 -19 15 4 25 2 25 -4 0 -6 -13 -13 -29
-16 -53 -11 -48 -52 7 -59 36 -5 38 -3 47 46 6 31 4 36 -20 47 -14 7 -27 12
-28 11 -1 0 -8 -3 -14 -6z m27 -68 c0 -8 -7 -15 -15 -15 -16 0 -20 12 -8 23
11 12 23 8 23 -8z"/>
<path d="M895 213 c-16 -28 -7 -103 12 -103 9 0 13 6 10 14 -3 8 -2 29 3 46
14 49 -4 79 -25 43z"/>
<path d="M1171 216 c-9 -10 -9 -16 -1 -21 6 -4 17 1 24 11 8 10 15 13 19 7 4
-6 -2 -18 -13 -28 -11 -10 -20 -27 -20 -38 0 -17 5 -19 36 -14 20 3 39 8 41
11 3 3 1 22 -4 43 -7 33 -13 38 -39 41 -18 2 -36 -3 -43 -12z m59 -51 c0 -8
-7 -15 -15 -15 -16 0 -20 12 -8 23 11 12 23 8 23 -8z"/>
<path d="M955 190 c-10 -17 3 -26 17 -12 15 15 28 15 28 2 0 -6 -12 -15 -26
-20 -19 -7 -25 -16 -22 -33 2 -18 10 -22 41 -23 l38 -1 -3 46 c-3 44 -5 46
-35 49 -17 2 -34 -2 -38 -8z m45 -55 c0 -8 -4 -15 -10 -15 -5 0 -10 7 -10 15
0 8 5 15 10 15 6 0 10 -7 10 -15z"/>
</g>
</svg>
