<svg id="svg" version="1.1" xmlns="http://www.w3.org/2000/svg" xmlns:xlink="http://www.w3.org/1999/xlink" width="400" height="225" viewBox="0, 0, 400,225"><g id="svgg"><path id="path0" d="M296.849 153.760 C 296.632 153.886,296.455 154.137,296.455 154.316 C 296.455 154.582,295.992 154.643,293.979 154.643 C 291.670 154.643,291.503 154.672,291.503 155.084 C 291.503 155.481,291.317 155.531,289.645 155.590 C 287.967 155.649,287.767 155.704,287.566 156.162 C 287.386 156.574,287.164 156.669,286.382 156.669 C 285.699 156.669,285.309 156.799,285.035 157.119 C 284.776 157.421,284.371 157.569,283.801 157.569 C 283.192 157.569,282.873 157.698,282.669 158.025 C 282.499 158.298,282.036 158.537,281.512 158.621 C 280.926 158.715,280.602 158.899,280.529 159.178 C 280.469 159.407,280.254 159.595,280.050 159.595 C 279.847 159.595,279.558 159.791,279.409 160.030 C 279.251 160.283,278.827 160.495,278.398 160.537 C 277.837 160.591,277.642 160.726,277.589 161.100 C 277.545 161.407,277.333 161.619,277.026 161.663 C 276.516 161.736,276.182 164.688,276.528 166.066 C 276.714 166.812,283.606 166.862,284.239 166.123 C 284.601 165.700,284.904 165.672,289.245 165.671 C 294.902 165.668,296.249 165.535,296.399 164.962 C 296.564 164.329,301.523 164.329,301.688 164.963 C 301.823 165.476,302.837 165.667,305.461 165.670 C 307.131 165.672,307.412 165.730,307.657 166.123 C 307.851 166.433,308.182 166.573,308.724 166.573 C 309.360 166.573,309.510 166.659,309.510 167.023 C 309.510 167.313,309.660 167.473,309.932 167.473 C 310.280 167.473,310.379 167.710,310.507 168.836 C 310.632 169.940,310.751 170.232,311.138 170.375 C 311.609 170.549,311.609 170.553,311.160 170.671 C 310.594 170.818,310.417 171.758,310.413 174.620 C 310.411 176.551,310.378 176.702,309.961 176.702 C 309.550 176.702,309.510 176.852,309.510 178.389 C 309.510 179.831,309.445 180.116,309.060 180.356 C 308.704 180.579,308.610 180.881,308.610 181.805 C 308.610 182.782,308.518 183.045,308.047 183.415 C 307.610 183.759,307.485 184.064,307.485 184.782 C 307.485 185.406,307.338 185.852,307.034 186.156 C 306.720 186.471,306.584 186.907,306.584 187.604 C 306.584 188.386,306.492 188.632,306.158 188.737 C 305.679 188.890,305.466 189.485,305.462 190.688 C 305.459 191.316,305.354 191.534,305.008 191.624 C 304.652 191.717,304.558 191.931,304.558 192.653 C 304.558 193.325,304.410 193.712,303.995 194.127 C 303.577 194.546,303.433 194.928,303.433 195.621 C 303.433 196.370,303.342 196.577,302.974 196.673 C 302.553 196.783,302.520 196.943,302.580 198.622 L 302.645 200.450 305.422 200.514 C 308.012 200.573,308.206 200.548,308.313 200.139 C 308.376 199.898,308.671 199.639,308.969 199.565 C 309.313 199.478,309.510 199.266,309.510 198.983 C 309.510 198.687,309.662 198.537,309.961 198.537 C 310.255 198.537,310.411 198.387,310.411 198.102 C 310.411 197.823,310.592 197.642,310.917 197.596 C 311.234 197.551,311.450 197.343,311.493 197.040 C 311.531 196.774,311.758 196.505,311.999 196.442 C 312.240 196.380,312.437 196.171,312.437 195.980 C 312.437 195.788,312.690 195.378,312.999 195.068 C 313.309 194.759,313.562 194.298,313.562 194.045 C 313.562 193.735,313.709 193.585,314.012 193.585 C 314.313 193.585,314.463 193.435,314.463 193.134 C 314.463 192.887,314.557 192.684,314.672 192.684 C 315.093 192.684,315.588 191.960,315.588 191.344 C 315.588 190.900,315.723 190.676,316.038 190.593 C 316.297 190.526,316.488 190.286,316.488 190.030 C 316.488 189.775,316.680 189.535,316.939 189.468 C 317.295 189.375,317.389 189.161,317.389 188.444 C 317.389 187.676,317.466 187.527,317.895 187.466 C 318.316 187.407,318.413 187.233,318.471 186.438 C 318.527 185.664,318.624 185.481,318.977 185.481 C 319.346 185.481,319.415 185.321,319.415 184.468 C 319.415 183.711,319.501 183.455,319.758 183.455 C 320.195 183.455,320.540 182.554,320.540 181.415 C 320.540 180.679,320.617 180.529,320.990 180.529 C 321.394 180.529,321.441 180.379,321.441 179.081 C 321.441 177.752,321.482 177.628,321.947 177.562 C 322.407 177.497,322.460 177.351,322.520 175.971 C 322.568 174.880,322.672 174.451,322.890 174.451 C 323.358 174.451,323.467 173.916,323.467 171.619 C 323.467 169.696,323.506 169.499,323.889 169.499 C 324.505 169.499,324.592 168.731,324.589 163.337 C 324.586 158.111,324.520 157.569,323.890 157.569 C 323.617 157.569,323.467 157.410,323.467 157.119 C 323.467 156.824,323.316 156.669,323.032 156.669 C 322.753 156.669,322.572 156.488,322.526 156.162 C 322.466 155.742,322.292 155.644,321.508 155.587 C 320.806 155.536,320.527 155.406,320.424 155.080 C 320.301 154.693,320.069 154.643,318.398 154.643 C 316.698 154.643,316.452 154.587,315.904 154.080 L 315.297 153.517 306.270 153.524 C 300.558 153.528,297.098 153.615,296.849 153.760 M75.452 158.630 C 74.447 158.822,73.978 163.325,74.937 163.576 C 75.173 163.638,75.417 163.881,75.479 164.118 C 75.544 164.368,75.788 164.547,76.062 164.547 C 76.390 164.547,76.533 164.690,76.533 165.018 C 76.533 165.293,76.713 165.536,76.963 165.602 C 77.199 165.664,77.443 165.907,77.505 166.143 C 77.570 166.393,77.814 166.573,78.088 166.573 C 78.409 166.573,78.559 166.716,78.559 167.023 C 78.559 167.330,78.709 167.473,79.031 167.473 C 79.313 167.473,79.549 167.654,79.620 167.923 C 79.684 168.171,79.877 168.374,80.047 168.374 C 80.217 168.374,80.484 168.579,80.640 168.830 C 80.806 169.098,81.270 169.341,81.767 169.421 C 82.467 169.534,82.611 169.648,82.611 170.091 C 82.611 170.475,82.738 170.625,83.061 170.625 C 83.361 170.625,83.512 170.775,83.512 171.075 C 83.512 171.405,83.662 171.525,84.074 171.525 C 84.487 171.525,84.637 171.645,84.637 171.975 C 84.637 172.261,84.787 172.425,85.048 172.425 C 85.274 172.425,85.697 172.679,85.988 172.988 C 86.278 173.298,86.752 173.551,87.040 173.551 C 87.421 173.551,87.563 173.679,87.563 174.022 C 87.563 174.297,87.743 174.540,87.993 174.606 C 88.229 174.668,88.473 174.911,88.534 175.147 C 88.596 175.384,88.836 175.577,89.068 175.577 C 89.300 175.577,89.663 175.779,89.875 176.027 C 90.102 176.292,90.539 176.477,90.938 176.477 C 91.510 176.477,91.615 176.564,91.615 177.040 C 91.615 177.441,91.737 177.603,92.039 177.603 C 92.274 177.603,92.516 177.804,92.581 178.053 C 92.674 178.411,92.888 178.503,93.620 178.503 C 94.453 178.503,94.541 178.557,94.541 179.066 C 94.541 179.472,94.662 179.629,94.976 179.629 C 95.216 179.629,95.476 179.831,95.554 180.079 C 95.665 180.427,95.895 180.529,96.567 180.529 C 97.297 180.529,97.448 180.610,97.508 181.035 C 97.553 181.353,97.761 181.568,98.064 181.611 C 98.330 181.649,98.599 181.877,98.662 182.117 C 98.751 182.461,98.974 182.555,99.698 182.555 C 100.474 182.555,100.619 182.627,100.619 183.012 C 100.619 183.264,100.796 183.536,101.013 183.616 C 101.230 183.697,101.539 183.947,101.701 184.172 C 101.887 184.431,102.279 184.581,102.770 184.581 C 103.395 184.581,103.545 184.668,103.545 185.031 C 103.545 185.414,103.695 185.481,104.558 185.481 C 105.489 185.481,105.571 185.527,105.571 186.044 C 105.571 186.465,105.690 186.607,106.042 186.607 C 106.301 186.607,106.771 186.809,107.085 187.057 C 107.400 187.304,107.823 187.507,108.024 187.507 C 108.226 187.507,108.491 187.735,108.613 188.014 C 108.776 188.386,109.059 188.538,109.679 188.590 C 110.341 188.645,110.523 188.754,110.523 189.096 C 110.523 189.463,110.684 189.533,111.521 189.533 C 112.383 189.533,112.528 189.601,112.590 190.039 C 112.650 190.460,112.823 190.558,113.618 190.615 C 114.392 190.671,114.575 190.768,114.575 191.122 C 114.575 191.489,114.735 191.559,115.572 191.559 C 116.435 191.559,116.579 191.627,116.642 192.065 C 116.701 192.486,116.875 192.583,117.670 192.641 C 118.444 192.697,118.627 192.794,118.627 193.147 C 118.627 193.506,118.786 193.585,119.512 193.585 C 120.200 193.585,120.429 193.685,120.540 194.035 C 120.650 194.382,120.881 194.485,121.544 194.485 C 122.274 194.485,122.426 194.570,122.546 195.048 C 122.670 195.541,122.809 195.611,123.670 195.611 C 124.463 195.611,124.675 195.697,124.770 196.061 C 124.870 196.443,125.077 196.511,126.142 196.511 C 127.293 196.511,127.409 196.558,127.538 197.074 C 127.660 197.556,127.808 197.636,128.577 197.636 C 129.284 197.636,129.499 197.731,129.592 198.087 C 129.694 198.477,129.899 198.537,131.130 198.537 C 132.433 198.537,132.558 198.579,132.624 199.043 C 132.688 199.498,132.839 199.557,134.102 199.617 C 135.325 199.675,135.509 199.741,135.509 200.123 C 135.509 200.493,135.667 200.563,136.507 200.563 C 137.286 200.563,137.534 200.656,137.639 200.986 C 137.780 201.431,138.619 201.688,139.927 201.688 C 140.386 201.688,140.864 201.866,141.137 202.138 C 141.495 202.496,141.887 202.589,143.050 202.589 C 144.363 202.589,144.513 202.635,144.513 203.039 C 144.513 203.443,144.663 203.489,145.982 203.489 C 147.341 203.489,147.467 203.531,147.665 204.052 C 147.868 204.588,147.965 204.615,149.685 204.615 C 151.341 204.615,151.491 204.652,151.491 205.065 C 151.491 205.476,151.641 205.515,153.239 205.515 C 154.840 205.515,155.021 205.562,155.409 206.078 C 155.800 206.598,155.970 206.640,157.687 206.640 C 159.353 206.640,159.554 206.686,159.660 207.091 C 159.768 207.505,159.967 207.541,162.162 207.541 C 164.344 207.541,164.547 207.577,164.547 207.963 C 164.547 208.517,165.334 208.666,168.263 208.666 C 170.383 208.666,170.582 208.703,170.690 209.116 C 170.802 209.544,170.997 209.567,174.629 209.567 C 178.157 209.567,178.459 209.599,178.559 209.983 C 178.728 210.629,179.556 210.692,187.847 210.692 C 195.369 210.692,195.561 210.703,195.676 211.142 C 195.787 211.569,195.983 211.593,199.414 211.593 C 202.791 211.593,203.054 211.562,203.316 211.142 C 203.588 210.708,203.841 210.692,210.729 210.692 L 217.861 210.692 218.530 210.129 C 219.182 209.580,219.285 209.567,222.824 209.567 C 226.299 209.567,226.449 209.548,226.449 209.116 C 226.449 208.691,226.599 208.666,229.161 208.666 C 231.833 208.666,233.202 208.359,233.202 207.760 C 233.202 207.633,234.102 207.541,235.340 207.541 C 237.329 207.541,237.479 207.509,237.479 207.091 C 237.479 206.676,237.629 206.640,239.378 206.640 C 241.452 206.640,242.431 206.390,242.431 205.858 C 242.431 205.576,242.792 205.515,244.457 205.515 C 246.333 205.515,246.483 205.482,246.483 205.065 C 246.483 204.660,246.633 204.615,247.956 204.615 C 249.228 204.615,249.507 204.537,249.992 204.052 C 250.476 203.568,250.758 203.489,252.008 203.489 C 253.311 203.489,253.461 203.443,253.461 203.039 C 253.461 202.634,253.611 202.589,254.945 202.589 C 256.240 202.589,256.444 202.531,256.547 202.138 C 256.648 201.754,256.854 201.688,257.956 201.688 C 259.022 201.688,259.354 201.590,259.855 201.125 C 260.313 200.701,260.707 200.563,261.463 200.563 C 262.315 200.563,262.465 200.495,262.465 200.113 C 262.465 199.733,262.616 199.662,263.421 199.659 C 264.812 199.655,265.391 199.449,265.391 198.961 C 265.391 198.602,265.564 198.537,266.517 198.537 C 267.330 198.537,267.763 198.416,268.078 198.101 C 268.318 197.861,268.900 197.634,269.372 197.595 C 270.007 197.542,270.289 197.392,270.453 197.017 C 270.633 196.606,270.855 196.511,271.635 196.511 C 272.284 196.511,272.735 196.370,273.030 196.075 C 273.270 195.836,273.852 195.608,274.324 195.569 C 274.959 195.516,275.241 195.366,275.405 194.992 C 275.580 194.592,275.811 194.485,276.495 194.485 C 277.174 194.485,277.389 194.387,277.481 194.035 C 277.574 193.680,277.788 193.585,278.494 193.585 C 279.192 193.585,279.415 193.488,279.504 193.147 C 279.586 192.832,279.850 192.689,280.439 192.640 C 281.037 192.590,281.321 192.434,281.483 192.065 C 281.657 191.669,281.889 191.559,282.552 191.559 C 283.249 191.559,283.399 191.479,283.399 191.109 C 283.399 190.761,283.549 190.658,284.056 190.658 C 285.006 190.658,285.425 190.444,285.425 189.959 C 285.425 189.610,285.592 189.533,286.346 189.533 C 287.078 189.533,287.292 189.440,287.386 189.083 C 287.450 188.835,287.679 188.633,287.894 188.633 C 288.109 188.633,288.559 188.379,288.893 188.070 C 289.227 187.760,289.707 187.507,289.960 187.507 C 290.226 187.507,290.467 187.323,290.534 187.069 C 290.616 186.755,290.880 186.612,291.469 186.563 C 292.124 186.508,292.305 186.391,292.362 185.988 C 292.412 185.638,292.587 185.481,292.927 185.481 C 293.198 185.481,293.547 185.279,293.701 185.031 C 293.884 184.739,294.226 184.581,294.677 184.581 C 295.182 184.581,295.403 184.458,295.489 184.131 C 295.554 183.883,295.761 183.680,295.949 183.680 C 296.137 183.680,296.525 183.427,296.812 183.118 C 297.105 182.801,297.585 182.555,297.907 182.555 C 298.324 182.555,298.481 182.436,298.481 182.120 C 298.481 181.841,298.662 181.660,298.987 181.614 C 299.308 181.568,299.519 181.361,299.564 181.048 C 299.619 180.658,299.807 180.540,300.464 180.485 C 301.128 180.430,301.309 180.315,301.366 179.910 C 301.406 179.631,301.586 179.403,301.766 179.403 C 302.715 179.403,302.859 173.726,301.913 173.592 C 301.588 173.545,301.407 173.364,301.407 173.085 C 301.407 172.806,301.252 172.651,300.972 172.651 C 300.733 172.651,300.476 172.459,300.402 172.225 C 300.084 171.223,295.554 171.224,295.554 172.227 C 295.554 172.579,295.383 172.651,294.541 172.651 C 293.839 172.651,293.395 172.784,293.092 173.087 C 292.829 173.350,292.270 173.551,291.685 173.594 C 290.876 173.652,290.703 173.748,290.643 174.170 C 290.581 174.605,290.435 174.676,289.604 174.676 C 288.978 174.676,288.435 174.835,288.065 175.127 C 287.708 175.407,287.151 175.577,286.586 175.577 C 285.898 175.577,285.648 175.678,285.546 175.999 C 285.443 176.325,285.101 176.456,284.043 176.575 C 282.953 176.699,282.651 176.819,282.560 177.166 C 282.463 177.537,282.242 177.603,281.101 177.603 C 279.945 177.603,279.739 177.666,279.638 178.053 C 279.550 178.387,279.330 178.503,278.786 178.503 C 277.414 178.503,276.646 178.756,276.646 179.207 C 276.646 179.577,276.463 179.629,275.162 179.629 C 273.878 179.629,273.662 179.688,273.563 180.069 C 273.467 180.435,273.216 180.520,272.064 180.575 C 270.825 180.635,270.673 180.694,270.609 181.148 C 270.542 181.618,270.423 181.654,268.977 181.654 C 267.730 181.654,267.329 181.743,266.978 182.094 C 266.655 182.417,266.163 182.551,265.121 182.600 C 263.846 182.661,263.696 182.718,263.631 183.174 C 263.563 183.654,263.459 183.680,261.640 183.680 C 259.911 183.680,259.710 183.725,259.604 184.131 C 259.498 184.536,259.297 184.581,257.578 184.581 C 255.859 184.581,255.658 184.625,255.552 185.031 C 255.452 185.415,255.245 185.481,254.141 185.481 C 251.933 185.481,250.713 185.725,250.591 186.191 C 250.495 186.557,250.234 186.607,248.388 186.607 C 246.105 186.607,245.582 186.716,245.582 187.193 C 245.582 187.440,245.110 187.507,243.365 187.507 C 241.021 187.507,239.730 187.795,239.730 188.317 C 239.730 188.572,239.148 188.633,236.691 188.633 C 233.802 188.633,233.652 188.655,233.652 189.083 C 233.652 189.515,233.502 189.533,229.957 189.533 C 225.935 189.533,225.549 189.594,225.549 190.232 C 225.549 190.640,225.280 190.658,219.254 190.658 C 213.189 190.658,212.950 190.675,212.718 191.109 C 212.482 191.549,212.247 191.559,201.960 191.559 C 191.686 191.559,191.435 191.548,191.161 191.109 C 190.890 190.675,190.636 190.658,184.129 190.658 C 177.655 190.658,177.378 190.641,177.378 190.232 C 177.378 189.597,176.988 189.533,173.109 189.533 C 169.741 189.533,169.545 189.509,169.434 189.083 C 169.323 188.658,169.127 188.633,165.919 188.633 C 163.085 188.633,162.521 188.578,162.521 188.303 C 162.521 187.722,161.703 187.507,159.497 187.507 C 157.807 187.507,157.344 187.440,157.344 187.193 C 157.344 186.716,156.821 186.607,154.538 186.607 C 152.692 186.607,152.431 186.557,152.336 186.191 C 152.214 185.725,150.993 185.481,148.785 185.481 C 147.681 185.481,147.475 185.415,147.374 185.031 C 147.268 184.625,147.067 184.581,145.322 184.581 C 143.538 184.581,143.388 184.546,143.388 184.131 C 143.388 183.716,143.238 183.680,141.467 183.680 C 139.844 183.680,139.524 183.619,139.402 183.286 C 139.170 182.658,138.872 182.562,137.141 182.558 C 135.660 182.555,135.509 182.513,135.509 182.105 C 135.509 181.697,135.359 181.654,133.934 181.654 C 132.540 181.654,132.358 181.605,132.358 181.231 C 132.358 180.748,131.779 180.537,130.442 180.532 C 129.786 180.530,129.463 180.406,129.259 180.079 C 129.020 179.696,128.734 179.629,127.345 179.629 C 125.867 179.629,125.691 179.580,125.490 179.122 C 125.299 178.687,125.070 178.606,123.860 178.549 C 122.638 178.490,122.454 178.424,122.454 178.042 C 122.454 177.651,122.292 177.603,120.990 177.603 C 119.708 177.603,119.527 177.550,119.527 177.179 C 119.527 176.755,118.962 176.486,118.058 176.480 C 117.807 176.479,117.428 176.275,117.216 176.027 C 116.927 175.690,116.552 175.577,115.718 175.577 C 114.803 175.577,114.580 175.497,114.463 175.127 C 114.346 174.758,114.122 174.676,113.226 174.676 C 112.327 174.676,112.053 174.576,111.689 174.114 C 111.345 173.677,111.040 173.551,110.322 173.551 C 109.548 173.551,109.398 173.478,109.398 173.101 C 109.398 172.710,109.248 172.651,108.256 172.651 C 107.153 172.651,106.472 172.313,106.472 171.766 C 106.472 171.630,106.029 171.525,105.459 171.525 C 104.596 171.525,104.446 171.458,104.446 171.075 C 104.446 170.691,104.296 170.625,103.433 170.625 C 102.591 170.625,102.420 170.553,102.420 170.201 C 102.420 169.773,101.854 169.508,100.927 169.502 C 100.637 169.500,100.400 169.320,100.329 169.049 C 100.231 168.676,100.022 168.599,99.105 168.599 C 98.206 168.599,97.908 168.494,97.510 168.036 C 97.232 167.717,96.777 167.473,96.458 167.473 C 96.140 167.473,95.774 167.278,95.615 167.023 C 95.405 166.687,95.090 166.573,94.375 166.573 C 93.566 166.573,93.416 166.502,93.416 166.123 C 93.416 165.739,93.266 165.672,92.403 165.672 C 91.473 165.672,91.390 165.627,91.390 165.110 C 91.390 164.606,91.298 164.547,90.516 164.547 C 89.831 164.547,89.616 164.449,89.524 164.097 C 89.431 163.741,89.217 163.647,88.500 163.647 C 87.732 163.647,87.584 163.570,87.523 163.140 C 87.472 162.783,87.275 162.613,86.855 162.565 C 86.528 162.527,86.081 162.299,85.864 162.058 C 85.646 161.818,85.242 161.621,84.966 161.621 C 84.656 161.621,84.420 161.451,84.348 161.177 C 84.266 160.862,83.965 160.690,83.309 160.585 C 82.610 160.473,82.386 160.336,82.386 160.016 C 82.386 159.676,82.216 159.595,81.501 159.595 C 80.832 159.595,80.583 159.491,80.481 159.171 C 80.282 158.544,77.479 158.242,75.452 158.630 " stroke="none" fill="#fc9c04" fill-rule="evenodd"></path><path id="path1" d="M283.689 61.002 C 283.579 61.422,283.382 61.452,280.703 61.452 C 277.906 61.452,277.824 61.466,277.412 62.015 C 277.028 62.526,276.837 62.577,275.333 62.577 C 273.882 62.577,273.663 62.631,273.563 63.016 C 273.477 63.346,273.217 63.471,272.515 63.522 C 271.743 63.579,271.569 63.678,271.509 64.097 C 271.448 64.526,271.300 64.603,270.532 64.603 C 269.830 64.603,269.601 64.700,269.514 65.032 C 269.441 65.309,269.120 65.514,268.609 65.610 C 268.093 65.707,267.778 65.910,267.703 66.194 C 267.631 66.471,267.394 66.629,267.053 66.629 C 266.667 66.629,266.517 66.755,266.517 67.079 C 266.517 67.379,266.367 67.530,266.066 67.530 C 265.775 67.530,265.616 67.680,265.616 67.955 C 265.616 68.222,265.406 68.434,265.053 68.522 C 264.690 68.614,264.491 68.822,264.491 69.110 C 264.491 69.405,264.339 69.555,264.041 69.555 C 263.749 69.555,263.590 69.705,263.590 69.981 C 263.590 70.248,263.380 70.460,263.028 70.548 C 262.697 70.631,262.465 70.851,262.465 71.081 C 262.465 71.297,262.262 71.600,262.015 71.754 C 261.707 71.946,261.564 72.279,261.564 72.806 C 261.564 73.433,261.471 73.589,261.058 73.648 C 260.639 73.707,260.540 73.882,260.483 74.653 C 260.432 75.355,260.307 75.615,259.977 75.701 C 259.586 75.804,259.539 76.022,259.539 77.724 C 259.539 79.414,259.489 79.645,259.108 79.745 C 258.182 79.987,258.131 85.832,259.048 86.628 C 259.469 86.993,259.539 87.288,259.539 88.717 C 259.539 90.138,259.605 90.422,259.989 90.662 C 260.236 90.817,260.439 91.183,260.439 91.476 C 260.439 92.655,260.715 93.416,261.142 93.416 C 261.443 93.416,261.564 93.578,261.564 93.979 C 261.564 94.386,261.685 94.541,262.002 94.541 C 262.355 94.541,262.452 94.725,262.508 95.498 C 262.566 96.293,262.663 96.467,263.084 96.527 C 263.409 96.573,263.590 96.754,263.590 97.033 C 263.590 97.312,263.746 97.468,264.025 97.468 C 264.304 97.468,264.485 97.649,264.531 97.974 C 264.578 98.300,264.784 98.506,265.110 98.553 C 265.435 98.599,265.616 98.780,265.616 99.059 C 265.616 99.343,265.772 99.494,266.066 99.494 C 266.359 99.494,266.517 99.644,266.517 99.922 C 266.517 100.195,266.761 100.435,267.192 100.585 C 267.563 100.715,267.867 100.923,267.867 101.047 C 267.867 101.172,268.235 101.343,268.684 101.427 C 269.195 101.523,269.541 101.732,269.607 101.984 C 269.675 102.245,270.014 102.439,270.568 102.532 C 271.150 102.631,271.461 102.816,271.538 103.111 C 271.636 103.485,271.859 103.545,273.136 103.545 C 274.470 103.545,274.620 103.591,274.620 103.995 C 274.620 104.379,274.770 104.446,275.633 104.446 C 276.391 104.446,276.646 104.532,276.646 104.789 C 276.646 105.253,277.567 105.571,278.910 105.571 C 279.775 105.571,280.081 105.670,280.300 106.021 C 280.536 106.399,280.825 106.472,282.103 106.472 C 283.575 106.472,283.624 106.490,283.624 107.034 C 283.624 107.577,283.677 107.597,285.087 107.597 C 286.400 107.597,286.550 107.643,286.550 108.047 C 286.550 108.451,286.700 108.497,288.014 108.497 C 289.296 108.497,289.477 108.550,289.477 108.921 C 289.477 109.357,290.045 109.614,291.017 109.620 C 291.307 109.622,291.802 109.826,292.116 110.073 C 292.431 110.321,292.872 110.523,293.097 110.523 C 293.322 110.523,293.778 110.777,294.112 111.086 C 294.446 111.396,294.907 111.649,295.137 111.649 C 295.404 111.649,295.554 111.811,295.554 112.099 C 295.554 112.390,295.704 112.549,295.978 112.549 C 296.213 112.549,296.455 112.750,296.520 112.999 C 296.590 113.269,296.827 113.450,297.109 113.450 C 297.483 113.450,297.580 113.590,297.580 114.127 C 297.580 114.526,297.765 114.963,298.030 115.190 C 298.431 115.533,298.481 115.854,298.481 118.114 C 298.481 120.503,298.454 120.653,298.030 120.653 C 297.715 120.653,297.579 120.804,297.576 121.159 C 297.574 121.438,297.321 121.904,297.014 122.196 C 296.706 122.487,296.455 122.918,296.455 123.152 C 296.455 123.410,296.297 123.579,296.059 123.579 C 295.841 123.579,295.540 123.775,295.391 124.014 C 295.233 124.267,294.809 124.480,294.380 124.521 C 293.812 124.576,293.624 124.709,293.569 125.098 C 293.508 125.532,293.361 125.605,292.554 125.605 C 291.855 125.605,291.538 125.721,291.330 126.055 C 291.085 126.447,290.805 126.505,289.156 126.505 C 286.968 126.505,286.550 126.617,286.550 127.205 C 286.550 127.602,286.343 127.631,283.512 127.631 C 280.993 127.631,280.473 127.574,280.473 127.301 C 280.473 126.683,279.603 126.505,276.575 126.505 C 273.736 126.505,273.540 126.477,273.429 126.055 C 273.323 125.649,273.122 125.605,271.393 125.605 C 269.575 125.605,269.470 125.578,269.402 125.098 C 269.342 124.676,269.169 124.580,268.360 124.522 C 267.775 124.480,267.216 124.279,266.953 124.016 C 266.650 123.713,266.206 123.579,265.504 123.579 C 264.665 123.579,264.491 123.507,264.491 123.159 C 264.491 122.677,263.380 122.454,260.985 122.454 C 258.868 122.454,258.413 122.692,258.413 123.799 C 258.413 124.423,258.316 124.705,258.099 124.705 C 257.331 124.705,257.201 130.101,257.947 131.048 C 258.186 131.352,258.414 131.999,258.453 132.486 C 258.512 133.205,258.620 133.384,259.032 133.443 C 259.399 133.495,259.539 133.666,259.539 134.062 C 259.539 134.448,259.664 134.609,259.962 134.609 C 260.197 134.609,260.439 134.810,260.504 135.059 C 260.573 135.324,260.811 135.509,261.082 135.509 C 261.334 135.509,261.814 135.763,262.148 136.072 C 262.578 136.470,263.010 136.635,263.623 136.635 C 264.341 136.635,264.491 136.713,264.491 137.085 C 264.491 137.490,264.641 137.535,265.975 137.535 C 267.246 137.535,267.475 137.597,267.571 137.965 C 267.711 138.497,268.267 138.654,270.036 138.658 C 271.226 138.660,271.433 138.723,271.534 139.111 C 271.643 139.526,271.841 139.561,274.095 139.561 C 276.294 139.561,276.566 139.606,276.819 140.011 C 277.090 140.445,277.344 140.461,283.647 140.461 C 290.005 140.461,290.197 140.448,290.312 140.011 C 290.420 139.598,290.619 139.561,292.759 139.561 C 294.858 139.561,295.112 139.517,295.329 139.111 C 295.520 138.755,295.801 138.661,296.669 138.661 C 298.058 138.661,298.481 138.498,298.481 137.961 C 298.481 137.600,298.652 137.535,299.606 137.535 C 300.431 137.535,300.852 137.415,301.182 137.085 C 301.429 136.837,301.839 136.635,302.092 136.635 C 302.346 136.635,302.806 136.382,303.116 136.072 C 303.425 135.763,303.876 135.509,304.118 135.509 C 304.400 135.509,304.558 135.356,304.558 135.084 C 304.558 134.774,304.778 134.618,305.371 134.507 C 305.906 134.406,306.223 134.205,306.298 133.919 C 306.362 133.674,306.606 133.483,306.857 133.483 C 307.112 133.483,307.352 133.292,307.419 133.033 C 307.484 132.786,307.679 132.583,307.853 132.583 C 308.027 132.583,308.281 132.338,308.417 132.039 C 308.553 131.740,308.855 131.446,309.088 131.385 C 309.320 131.324,309.510 131.078,309.510 130.838 C 309.510 130.598,309.713 130.218,309.961 129.994 C 310.208 129.770,310.411 129.349,310.411 129.059 C 310.411 128.646,310.533 128.531,310.974 128.531 C 311.466 128.531,311.536 128.434,311.536 127.745 C 311.536 127.203,311.676 126.872,311.986 126.678 C 312.320 126.470,312.437 126.153,312.437 125.454 C 312.437 124.647,312.510 124.500,312.943 124.439 C 313.415 124.372,313.454 124.241,313.515 122.522 C 313.571 120.919,313.638 120.659,314.021 120.537 C 314.699 120.322,314.701 112.563,314.023 111.885 C 313.700 111.562,313.566 111.071,313.517 110.028 C 313.456 108.753,313.399 108.603,312.943 108.538 C 312.505 108.476,312.437 108.332,312.437 107.469 C 312.437 106.622,312.369 106.472,311.986 106.472 C 311.611 106.472,311.536 106.322,311.536 105.571 C 311.536 104.761,311.480 104.671,310.974 104.671 C 310.523 104.671,310.411 104.558,310.411 104.108 C 310.411 103.695,310.291 103.545,309.961 103.545 C 309.660 103.545,309.510 103.395,309.510 103.095 C 309.510 102.800,309.360 102.645,309.076 102.645 C 308.797 102.645,308.616 102.464,308.569 102.138 C 308.523 101.813,308.316 101.606,307.991 101.560 C 307.666 101.514,307.485 101.333,307.485 101.054 C 307.485 100.782,307.329 100.619,307.070 100.619 C 306.843 100.619,306.541 100.366,306.400 100.056 C 306.226 99.673,305.963 99.494,305.578 99.494 C 305.256 99.494,304.891 99.300,304.731 99.043 C 304.576 98.796,304.226 98.593,303.953 98.593 C 303.679 98.593,303.374 98.456,303.275 98.288 C 302.990 97.806,302.180 97.468,301.309 97.468 C 300.657 97.468,300.506 97.383,300.506 97.017 C 300.506 96.635,300.356 96.567,299.509 96.567 C 298.725 96.567,298.482 96.475,298.375 96.138 C 298.269 95.804,297.935 95.674,296.871 95.550 C 295.997 95.449,295.351 95.238,295.079 94.967 C 294.776 94.663,294.332 94.541,293.528 94.541 C 292.703 94.541,292.283 94.421,291.953 94.091 C 291.596 93.734,291.202 93.641,290.055 93.641 C 288.725 93.641,288.602 93.600,288.536 93.134 C 288.470 92.674,288.325 92.622,286.944 92.561 C 285.609 92.503,285.425 92.441,285.425 92.055 C 285.425 91.664,285.264 91.615,283.977 91.615 C 282.648 91.615,282.524 91.574,282.458 91.109 C 282.398 90.688,282.225 90.590,281.429 90.533 C 280.656 90.477,280.473 90.380,280.473 90.026 C 280.473 89.658,280.313 89.589,279.460 89.589 C 278.582 89.589,278.447 89.526,278.447 89.118 C 278.447 88.844,278.267 88.600,278.017 88.534 C 277.781 88.473,277.538 88.229,277.476 87.993 C 277.410 87.743,277.167 87.563,276.892 87.563 C 276.571 87.563,276.421 87.420,276.421 87.113 C 276.421 86.813,276.271 86.663,275.971 86.663 C 275.638 86.663,275.521 86.513,275.521 86.085 C 275.521 85.331,275.140 84.637,274.725 84.637 C 274.055 84.637,274.270 80.714,274.958 80.401 C 275.403 80.198,275.521 79.979,275.521 79.352 C 275.521 78.709,275.606 78.559,275.971 78.559 C 276.301 78.559,276.421 78.409,276.421 77.997 C 276.421 77.576,276.540 77.434,276.892 77.434 C 277.174 77.434,277.411 77.253,277.481 76.984 C 277.546 76.735,277.788 76.533,278.023 76.533 C 278.297 76.533,278.447 76.374,278.447 76.083 C 278.447 75.722,278.597 75.633,279.207 75.633 C 280.604 75.633,281.373 75.383,281.373 74.930 C 281.373 74.270,296.350 74.272,296.559 74.931 C 296.714 75.419,297.549 75.633,299.297 75.633 C 300.356 75.633,300.506 75.689,300.506 76.083 C 300.506 76.465,300.657 76.533,301.493 76.533 C 302.291 76.533,302.502 76.620,302.598 76.984 C 302.698 77.369,302.905 77.434,304.034 77.434 C 305.185 77.434,305.380 77.498,305.574 77.940 C 306.146 79.243,309.510 78.399,309.510 76.953 C 309.510 76.684,309.671 76.533,309.961 76.533 C 310.394 76.533,310.411 76.383,310.411 72.594 C 310.411 68.805,310.394 68.655,309.961 68.655 C 309.577 68.655,309.510 68.505,309.510 67.642 C 309.510 66.809,309.437 66.629,309.096 66.629 C 308.869 66.629,308.567 66.376,308.426 66.066 C 308.225 65.627,308.002 65.504,307.403 65.504 C 306.826 65.504,306.608 65.392,306.519 65.053 C 306.426 64.697,306.212 64.603,305.495 64.603 C 304.727 64.603,304.579 64.526,304.518 64.097 C 304.452 63.637,304.307 63.584,302.926 63.524 C 301.591 63.465,301.407 63.404,301.407 63.017 C 301.407 62.613,301.241 62.577,299.381 62.577 C 297.547 62.577,297.355 62.537,297.355 62.153 C 297.355 61.559,296.782 61.458,293.386 61.455 C 290.620 61.452,290.422 61.423,290.312 61.002 C 290.201 60.578,290.005 60.551,287.001 60.551 C 283.996 60.551,283.800 60.578,283.689 61.002 M106.415 61.802 C 106.075 61.989,105.796 62.240,105.796 62.359 C 105.796 62.484,104.919 62.577,103.749 62.577 C 101.907 62.577,101.691 62.621,101.587 63.017 C 101.491 63.384,101.241 63.469,100.089 63.524 C 98.850 63.583,98.698 63.643,98.634 64.097 C 98.568 64.561,98.443 64.603,97.130 64.603 C 95.895 64.603,95.677 64.665,95.554 65.053 C 95.443 65.403,95.214 65.504,94.530 65.504 C 93.779 65.504,93.629 65.586,93.508 66.066 C 93.388 66.546,93.238 66.629,92.491 66.629 C 91.765 66.629,91.615 66.706,91.615 67.079 C 91.615 67.409,91.465 67.530,91.052 67.530 C 90.602 67.530,90.490 67.642,90.490 68.092 C 90.490 68.505,90.370 68.655,90.039 68.655 C 89.603 68.655,89.589 68.805,89.589 73.607 C 89.589 78.409,89.603 78.559,90.039 78.559 C 90.340 78.559,90.490 78.709,90.490 79.010 C 90.490 79.431,90.640 79.460,92.838 79.460 C 94.989 79.460,95.198 79.422,95.329 79.010 C 95.444 78.649,95.670 78.559,96.470 78.559 C 97.384 78.559,97.468 78.512,97.468 77.997 C 97.468 77.454,97.520 77.434,98.931 77.434 C 100.217 77.434,100.394 77.382,100.394 77.008 C 100.394 76.631,100.607 76.571,102.212 76.499 C 103.648 76.433,104.076 76.334,104.249 76.025 C 104.421 75.716,104.774 75.633,105.905 75.633 C 107.551 75.633,108.497 75.347,108.497 74.851 C 108.497 74.552,109.267 74.508,114.463 74.508 C 119.551 74.508,120.428 74.556,120.428 74.837 C 120.428 75.338,121.173 75.633,122.439 75.633 C 123.429 75.633,123.579 75.692,123.579 76.083 C 123.579 76.467,123.729 76.533,124.592 76.533 C 125.455 76.533,125.605 76.600,125.605 76.984 C 125.605 77.284,125.755 77.434,126.055 77.434 C 126.362 77.434,126.505 77.584,126.505 77.905 C 126.505 78.184,126.686 78.424,126.948 78.492 C 127.192 78.556,127.452 78.800,127.526 79.034 C 127.600 79.268,127.857 79.460,128.096 79.460 C 128.455 79.460,128.531 79.621,128.531 80.381 C 128.531 81.113,128.624 81.327,128.981 81.420 C 129.357 81.519,129.432 81.729,129.435 82.694 C 129.439 83.952,129.563 84.256,130.163 84.478 C 130.524 84.611,130.556 85.068,130.539 89.864 C 130.530 92.746,130.470 94.977,130.408 94.823 C 130.327 94.622,129.592 94.541,127.837 94.541 C 125.530 94.541,125.380 94.514,125.380 94.091 C 125.380 93.656,125.230 93.641,120.878 93.641 C 116.611 93.641,116.376 93.619,116.376 93.215 C 116.376 92.600,115.970 92.515,112.999 92.515 C 110.029 92.515,109.623 92.600,109.623 93.215 C 109.623 93.612,109.416 93.641,106.584 93.641 C 103.845 93.641,103.501 93.685,103.095 94.091 C 102.746 94.440,102.345 94.541,101.307 94.541 C 100.234 94.541,99.908 94.629,99.660 94.982 C 99.480 95.240,98.959 95.486,98.410 95.574 C 97.693 95.688,97.468 95.825,97.468 96.146 C 97.468 96.486,97.297 96.567,96.582 96.567 C 95.895 96.567,95.665 96.668,95.554 97.017 C 95.476 97.265,95.240 97.468,95.030 97.468 C 94.820 97.468,94.548 97.696,94.426 97.974 C 94.271 98.327,93.974 98.503,93.447 98.553 C 92.926 98.603,92.655 98.761,92.576 99.059 C 92.514 99.298,92.272 99.494,92.039 99.494 C 91.737 99.494,91.615 99.655,91.615 100.056 C 91.615 100.506,91.503 100.619,91.052 100.619 C 90.640 100.619,90.490 100.739,90.490 101.069 C 90.490 101.369,90.340 101.519,90.039 101.519 C 89.713 101.519,89.589 101.669,89.589 102.067 C 89.589 102.462,89.449 102.633,89.083 102.686 C 88.677 102.743,88.562 102.924,88.507 103.591 C 88.458 104.180,88.310 104.464,88.001 104.562 C 87.725 104.650,87.563 104.904,87.563 105.249 C 87.563 105.556,87.431 105.796,87.262 105.796 C 86.859 105.796,86.438 106.766,86.438 107.694 C 86.438 108.256,86.324 108.475,85.988 108.563 C 85.581 108.669,85.537 108.870,85.537 110.615 C 85.537 112.354,85.495 112.549,85.117 112.549 C 84.552 112.549,84.418 113.460,84.414 117.301 C 84.411 121.320,84.566 122.454,85.118 122.454 C 85.495 122.454,85.537 122.651,85.537 124.388 C 85.537 126.116,85.584 126.335,85.976 126.437 C 86.306 126.523,86.431 126.783,86.482 127.485 C 86.539 128.257,86.638 128.431,87.057 128.491 C 87.495 128.553,87.563 128.697,87.563 129.560 C 87.563 130.407,87.631 130.557,88.014 130.557 C 88.305 130.557,88.464 130.707,88.464 130.984 C 88.464 131.218,88.715 131.649,89.023 131.940 C 89.330 132.232,89.583 132.657,89.585 132.885 C 89.587 133.114,89.782 133.351,90.019 133.413 C 90.255 133.474,90.500 133.726,90.565 133.971 C 90.629 134.216,90.891 134.472,91.148 134.539 C 91.405 134.606,91.615 134.791,91.615 134.949 C 91.615 135.285,92.111 135.509,92.856 135.509 C 93.233 135.509,93.405 135.655,93.456 136.016 C 93.502 136.333,93.709 136.548,94.012 136.591 C 94.278 136.629,94.547 136.857,94.610 137.098 C 94.699 137.438,94.922 137.535,95.620 137.535 C 96.301 137.535,96.541 137.635,96.624 137.951 C 96.734 138.374,97.621 138.661,98.820 138.661 C 99.252 138.661,99.477 138.798,99.559 139.111 C 99.674 139.551,99.866 139.561,108.362 139.561 C 116.804 139.561,117.055 139.548,117.329 139.111 C 117.533 138.783,117.856 138.660,118.512 138.658 C 119.849 138.653,120.428 138.442,120.428 137.959 C 120.428 137.607,120.599 137.535,121.441 137.535 C 122.294 137.535,122.454 137.466,122.454 137.098 C 122.454 136.744,122.637 136.647,123.410 136.591 C 124.206 136.534,124.379 136.437,124.439 136.016 C 124.500 135.586,124.649 135.509,125.417 135.509 C 126.133 135.509,126.347 135.415,126.440 135.059 C 126.505 134.810,126.747 134.609,126.982 134.609 C 127.284 134.609,127.406 134.447,127.406 134.046 C 127.406 133.596,127.518 133.483,127.968 133.483 C 128.278 133.483,128.724 133.291,128.959 133.055 C 129.195 132.820,129.589 132.563,129.835 132.485 C 130.082 132.407,130.336 132.144,130.399 131.900 C 130.468 131.638,130.707 131.458,130.986 131.458 C 131.307 131.458,131.458 131.314,131.458 131.007 C 131.458 130.753,131.608 130.557,131.802 130.557 C 131.992 130.557,132.239 130.329,132.351 130.051 C 132.521 129.627,132.557 129.700,132.569 130.501 C 132.581 131.303,132.656 131.458,133.033 131.458 C 133.381 131.458,133.483 131.608,133.483 132.114 C 133.483 133.064,133.698 133.483,134.183 133.483 C 134.487 133.483,134.609 133.644,134.609 134.046 C 134.609 134.459,134.729 134.609,135.059 134.609 C 135.344 134.609,135.509 134.759,135.509 135.017 C 135.509 135.241,135.713 135.643,135.963 135.911 C 136.212 136.179,136.514 136.654,136.633 136.967 C 136.806 137.423,137.002 137.535,137.626 137.535 C 138.262 137.535,138.417 137.628,138.476 138.042 C 138.610 138.987,143.388 138.828,143.388 137.878 C 143.388 137.662,143.596 137.535,143.950 137.535 C 144.350 137.535,144.513 137.413,144.513 137.114 C 144.513 136.794,144.737 136.657,145.436 136.545 C 146.092 136.440,146.393 136.268,146.476 135.953 C 146.539 135.709,146.782 135.509,147.016 135.509 C 147.289 135.509,147.440 135.350,147.440 135.059 C 147.440 134.726,147.590 134.609,148.017 134.609 C 148.703 134.609,149.465 134.239,149.465 133.905 C 149.465 133.775,149.689 133.487,149.963 133.265 C 150.880 132.523,150.836 128.531,149.911 128.531 C 149.539 128.531,149.465 128.378,149.465 127.610 C 149.465 126.886,149.371 126.664,149.027 126.574 C 148.697 126.487,148.572 126.228,148.521 125.526 C 148.464 124.754,148.365 124.580,147.946 124.520 C 147.481 124.454,147.440 124.330,147.440 123.001 C 147.440 121.703,147.393 121.553,146.989 121.553 C 146.543 121.553,146.539 121.402,146.536 103.602 C 146.533 84.853,146.525 84.637,145.838 84.637 C 145.443 84.637,145.414 84.424,145.414 81.598 C 145.414 78.709,145.391 78.559,144.963 78.559 C 144.559 78.559,144.513 78.409,144.513 77.096 C 144.513 75.686,144.493 75.633,143.950 75.633 C 143.436 75.633,143.388 75.549,143.388 74.651 C 143.388 74.009,143.232 73.469,142.938 73.096 C 142.690 72.781,142.487 72.311,142.487 72.052 C 142.487 71.739,142.344 71.581,142.057 71.581 C 141.728 71.581,141.590 71.362,141.470 70.653 C 141.362 70.014,141.181 69.691,140.887 69.614 C 140.653 69.553,140.461 69.312,140.461 69.079 C 140.461 68.810,140.302 68.655,140.027 68.655 C 139.748 68.655,139.567 68.474,139.520 68.149 C 139.474 67.823,139.268 67.616,138.942 67.570 C 138.617 67.524,138.436 67.343,138.436 67.064 C 138.436 66.783,138.280 66.629,137.996 66.629 C 137.754 66.629,137.302 66.376,136.993 66.066 C 136.683 65.757,136.223 65.504,135.970 65.504 C 135.659 65.504,135.509 65.357,135.509 65.053 C 135.509 64.671,135.359 64.603,134.512 64.603 C 133.649 64.603,133.505 64.535,133.443 64.097 C 133.378 63.643,133.227 63.583,131.988 63.524 C 130.836 63.469,130.585 63.384,130.489 63.017 C 130.391 62.641,130.174 62.577,128.982 62.577 C 127.810 62.577,127.526 62.497,127.180 62.071 L 126.771 61.564 116.902 61.513 C 108.463 61.470,106.945 61.512,106.415 61.802 M152.513 64.932 C 152.254 67.352,152.582 70.456,153.096 70.456 C 153.466 70.456,153.517 70.641,153.517 71.997 C 153.517 73.252,153.601 73.613,153.967 73.945 C 154.264 74.213,154.418 74.638,154.418 75.190 C 154.418 76.663,154.659 77.434,155.121 77.434 C 155.491 77.434,155.543 77.617,155.543 78.918 C 155.543 80.202,155.603 80.418,155.983 80.517 C 156.350 80.613,156.434 80.864,156.490 82.016 C 156.549 83.255,156.609 83.406,157.062 83.471 C 157.531 83.538,157.569 83.657,157.569 85.084 C 157.569 86.815,157.703 87.338,158.145 87.338 C 158.363 87.338,158.468 87.767,158.515 88.858 C 158.576 90.238,158.628 90.384,159.088 90.449 C 159.553 90.515,159.595 90.639,159.595 91.953 C 159.595 93.188,159.657 93.405,160.045 93.528 C 160.432 93.651,160.495 93.869,160.495 95.084 C 160.495 96.188,160.589 96.582,160.924 96.886 C 161.228 97.161,161.399 97.729,161.510 98.834 C 161.643 100.161,161.730 100.394,162.094 100.394 C 162.470 100.394,162.521 100.570,162.521 101.878 C 162.521 103.162,162.581 103.378,162.961 103.477 C 163.328 103.573,163.412 103.824,163.468 104.976 C 163.527 106.215,163.587 106.367,164.041 106.431 C 164.514 106.498,164.547 106.612,164.547 108.178 C 164.547 109.574,164.622 109.917,164.997 110.238 C 165.329 110.522,165.447 110.902,165.447 111.680 C 165.447 113.027,165.614 113.450,166.147 113.450 C 166.522 113.450,166.573 113.628,166.573 114.934 C 166.573 116.229,166.630 116.433,167.023 116.536 C 167.414 116.638,167.473 116.843,167.473 118.090 C 167.473 118.962,167.568 119.527,167.714 119.527 C 168.328 119.527,168.599 120.207,168.599 121.747 C 168.599 123.126,168.655 123.342,169.049 123.467 C 169.434 123.589,169.499 123.807,169.499 124.966 C 169.499 126.133,169.562 126.339,169.949 126.440 C 170.283 126.527,170.400 126.747,170.400 127.291 C 170.400 128.565,170.674 129.487,171.085 129.594 C 171.404 129.677,171.494 130.011,171.562 131.358 C 171.623 132.579,171.746 133.096,172.024 133.308 C 172.240 133.472,172.432 133.983,172.470 134.496 C 172.525 135.226,172.631 135.410,173.032 135.467 C 173.438 135.525,173.539 135.707,173.595 136.480 L 173.663 137.423 174.733 137.491 C 175.321 137.529,175.802 137.661,175.802 137.784 C 175.802 138.933,187.041 139.100,187.404 137.957 C 187.508 137.628,187.758 137.535,188.535 137.535 C 189.362 137.535,189.533 137.463,189.533 137.111 C 189.533 136.877,189.734 136.635,189.983 136.570 C 190.340 136.476,190.433 136.263,190.433 135.541 C 190.433 134.869,190.581 134.482,190.996 134.067 C 191.503 133.560,191.559 133.324,191.559 131.701 C 191.559 130.128,191.616 129.867,192.009 129.657 C 192.405 129.445,192.459 129.185,192.459 127.510 C 192.459 125.791,192.501 125.605,192.885 125.605 C 193.460 125.605,193.585 125.185,193.585 123.249 C 193.585 121.795,193.637 121.592,194.035 121.488 C 194.441 121.382,194.485 121.181,194.485 119.436 C 194.485 117.694,194.527 117.501,194.907 117.501 C 195.409 117.501,195.611 116.721,195.611 114.772 C 195.611 113.792,195.692 113.450,195.924 113.450 C 196.381 113.450,196.511 112.935,196.511 111.122 C 196.511 109.750,196.579 109.464,196.961 109.225 C 197.353 108.980,197.411 108.700,197.411 107.049 C 197.411 105.295,197.453 105.121,197.974 104.711 C 198.491 104.304,198.537 104.121,198.537 102.459 C 198.537 100.847,198.586 100.634,198.987 100.506 C 199.389 100.379,199.437 100.166,199.437 98.519 C 199.437 96.822,199.478 96.656,199.944 96.452 C 200.401 96.251,200.457 96.050,200.515 94.397 C 200.572 92.795,200.636 92.549,201.022 92.448 C 201.416 92.345,201.463 92.131,201.463 90.424 C 201.463 88.758,201.516 88.502,201.879 88.407 C 202.305 88.296,202.589 87.408,202.589 86.185 C 202.589 85.692,202.694 85.537,203.030 85.537 C 203.430 85.537,203.478 85.723,203.537 87.507 C 203.598 89.355,203.633 89.481,204.108 89.549 C 204.590 89.617,204.615 89.717,204.615 91.633 C 204.615 93.367,204.677 93.699,205.065 94.031 C 205.429 94.343,205.516 94.697,205.518 95.886 C 205.522 97.660,205.689 98.368,206.104 98.368 C 206.329 98.368,206.416 98.695,206.418 99.550 C 206.422 101.522,206.642 102.420,207.120 102.420 C 207.498 102.420,207.541 102.615,207.541 104.354 C 207.541 106.099,207.585 106.300,207.991 106.406 C 208.389 106.511,208.441 106.713,208.441 108.168 C 208.441 110.103,208.566 110.523,209.141 110.523 C 209.526 110.523,209.567 110.710,209.567 112.458 C 209.567 114.203,209.611 114.404,210.017 114.510 C 210.421 114.616,210.467 114.817,210.467 116.489 C 210.467 118.226,210.505 118.375,211.030 118.719 C 211.552 119.061,211.593 119.216,211.593 120.883 C 211.593 122.379,211.668 122.754,212.043 123.129 C 212.406 123.492,212.493 123.879,212.493 125.136 C 212.493 126.863,212.626 127.406,213.050 127.406 C 213.380 127.406,213.612 128.586,213.616 130.276 C 213.618 131.307,213.676 131.458,214.069 131.458 C 214.479 131.458,214.519 131.608,214.519 133.137 C 214.519 134.489,214.601 134.895,214.943 135.219 C 215.176 135.441,215.442 135.976,215.534 136.410 C 215.732 137.343,215.962 137.527,216.939 137.532 C 217.502 137.534,217.670 137.632,217.670 137.956 C 217.670 139.008,230.063 139.009,230.397 137.957 C 230.471 137.725,230.703 137.535,230.912 137.535 C 231.122 137.535,231.419 137.333,231.574 137.085 C 231.729 136.837,232.006 136.635,232.191 136.635 C 232.390 136.635,232.527 136.426,232.527 136.122 C 232.527 135.840,232.729 135.436,232.977 135.224 C 233.326 134.925,233.427 134.560,233.427 133.598 C 233.427 132.536,233.488 132.358,233.849 132.358 C 234.325 132.358,234.553 131.583,234.553 129.968 C 234.553 129.229,234.664 128.916,235.003 128.704 C 235.375 128.472,235.453 128.179,235.453 127.014 C 235.453 125.782,235.506 125.605,235.879 125.605 C 236.426 125.605,236.579 125.183,236.579 123.673 C 236.579 122.604,236.634 122.454,237.029 122.454 C 237.433 122.454,237.479 122.304,237.479 120.990 C 237.479 119.829,237.550 119.527,237.822 119.527 C 238.273 119.527,238.604 118.616,238.604 117.374 C 238.604 116.674,238.697 116.376,238.916 116.376 C 239.312 116.376,239.498 115.679,239.502 114.183 C 239.504 113.249,239.599 112.945,239.955 112.722 C 240.326 112.490,240.405 112.197,240.405 111.056 C 240.405 109.767,240.444 109.662,240.968 109.531 C 241.496 109.398,241.531 109.299,241.531 107.930 C 241.531 106.622,241.577 106.472,241.981 106.472 C 242.385 106.472,242.431 106.322,242.431 105.008 C 242.431 103.874,242.505 103.545,242.761 103.545 C 243.261 103.545,243.557 102.800,243.557 101.534 C 243.557 100.710,243.643 100.394,243.870 100.394 C 244.311 100.394,244.457 99.886,244.457 98.355 C 244.457 97.188,244.525 96.983,245.020 96.659 C 245.513 96.336,245.582 96.129,245.582 94.981 C 245.582 93.869,245.650 93.650,246.033 93.528 C 246.421 93.405,246.483 93.188,246.483 91.938 C 246.483 90.670,246.536 90.490,246.907 90.490 C 247.390 90.490,247.601 89.911,247.605 88.574 C 247.607 87.918,247.731 87.595,248.059 87.390 C 248.426 87.161,248.509 86.866,248.509 85.787 C 248.509 84.654,248.573 84.448,248.959 84.347 C 249.356 84.243,249.409 84.040,249.409 82.637 C 249.409 81.188,249.459 81.013,249.972 80.677 C 250.475 80.348,250.535 80.156,250.535 78.871 C 250.535 77.584,250.582 77.434,250.985 77.434 C 251.389 77.434,251.435 77.284,251.435 75.971 C 251.435 74.685,251.487 74.508,251.861 74.508 C 252.397 74.508,252.560 74.085,252.560 72.704 C 252.560 71.809,252.642 71.586,253.011 71.469 C 253.414 71.341,253.461 71.128,253.461 69.443 C 253.461 67.758,253.508 67.545,253.911 67.417 C 254.281 67.300,254.361 67.076,254.361 66.166 C 254.361 65.301,254.262 64.995,253.911 64.776 C 253.663 64.621,253.461 64.266,253.461 63.986 L 253.461 63.478 246.483 63.478 L 239.505 63.478 239.505 64.041 C 239.505 64.453,239.385 64.603,239.055 64.603 C 238.724 64.603,238.604 64.753,238.604 65.166 C 238.604 65.520,238.477 65.729,238.261 65.729 C 237.774 65.729,237.479 66.668,237.479 68.219 C 237.479 69.405,237.428 69.555,237.029 69.555 C 236.623 69.555,236.578 69.707,236.575 71.075 C 236.571 72.398,236.498 72.663,236.012 73.124 C 235.522 73.589,235.453 73.846,235.453 75.207 C 235.453 76.383,235.377 76.759,235.139 76.759 C 234.687 76.759,234.553 77.271,234.553 79.002 C 234.553 80.302,234.490 80.549,234.137 80.642 C 233.656 80.767,233.427 81.659,233.427 83.401 C 233.427 84.395,233.355 84.603,232.977 84.702 C 232.574 84.808,232.527 85.009,232.527 86.627 C 232.527 88.195,232.471 88.451,232.105 88.567 C 231.643 88.714,231.408 89.671,231.404 91.420 C 231.402 92.272,231.319 92.484,230.951 92.581 C 230.545 92.687,230.501 92.888,230.501 94.633 C 230.501 96.417,230.466 96.567,230.051 96.567 C 229.641 96.567,229.600 96.717,229.600 98.239 C 229.600 99.754,229.548 99.953,229.038 100.354 C 228.547 100.740,228.475 100.973,228.475 102.171 C 228.475 103.245,228.377 103.644,228.025 103.995 C 227.660 104.360,227.575 104.746,227.575 106.021 C 227.575 107.283,227.506 107.597,227.231 107.597 C 226.736 107.597,226.449 108.543,226.449 110.174 C 226.449 111.407,226.389 111.612,225.999 111.714 C 225.595 111.820,225.549 112.021,225.549 113.675 C 225.549 115.299,225.498 115.531,225.119 115.630 C 224.677 115.746,224.432 116.317,224.426 117.244 C 224.424 117.635,224.329 117.739,224.067 117.638 C 223.871 117.563,223.669 117.501,223.617 117.501 C 223.565 117.501,223.523 116.640,223.523 115.588 C 223.523 113.697,223.516 113.675,222.960 113.675 C 222.403 113.675,222.397 113.656,222.397 111.703 C 222.397 109.975,222.342 109.696,221.947 109.450 C 221.554 109.205,221.497 108.925,221.497 107.258 C 221.497 105.646,221.426 105.275,221.047 104.896 C 220.724 104.573,220.596 104.143,220.594 103.376 C 220.590 101.514,220.362 100.619,219.892 100.619 C 219.513 100.619,219.471 100.424,219.471 98.685 C 219.471 96.940,219.427 96.739,219.021 96.632 C 218.622 96.528,218.571 96.325,218.571 94.871 C 218.571 92.935,218.446 92.515,217.871 92.515 C 217.485 92.515,217.445 92.327,217.445 90.490 C 217.445 88.764,217.378 88.397,216.995 88.014 C 216.626 87.644,216.545 87.263,216.545 85.891 C 216.545 84.268,216.253 83.512,215.628 83.512 C 215.513 83.512,215.419 82.662,215.419 81.624 C 215.419 79.927,215.374 79.726,214.969 79.620 C 214.563 79.513,214.519 79.313,214.519 77.568 C 214.519 75.654,214.513 75.633,213.956 75.633 C 213.398 75.633,213.393 75.618,213.393 73.607 C 213.393 71.921,213.322 71.510,212.968 71.156 C 212.638 70.826,212.524 70.318,212.459 68.888 C 212.393 67.429,212.294 66.999,211.984 66.826 C 211.754 66.697,211.593 66.340,211.593 65.961 C 211.593 65.030,211.378 64.603,210.909 64.603 C 210.655 64.603,210.471 64.411,210.426 64.097 L 210.355 63.590 202.983 63.531 L 195.611 63.472 195.611 64.037 C 195.611 64.491,195.499 64.603,195.048 64.603 C 194.533 64.603,194.485 64.688,194.485 65.590 C 194.485 66.387,194.399 66.599,194.035 66.694 C 193.629 66.801,193.585 67.001,193.585 68.747 C 193.585 70.491,193.543 70.681,193.161 70.681 C 192.635 70.681,192.466 71.265,192.462 73.101 C 192.460 74.205,192.362 74.605,192.009 74.958 C 191.627 75.339,191.559 75.708,191.559 77.381 C 191.559 79.210,191.522 79.369,191.052 79.575 C 190.595 79.776,190.539 79.977,190.481 81.630 C 190.424 83.232,190.360 83.478,189.974 83.579 C 189.580 83.682,189.533 83.896,189.533 85.603 C 189.533 87.269,189.480 87.525,189.117 87.620 C 188.635 87.745,188.407 88.637,188.407 90.394 C 188.407 91.302,188.312 91.646,188.014 91.813 C 187.693 91.992,187.605 92.418,187.540 94.088 C 187.474 95.809,187.392 96.185,187.034 96.409 C 186.668 96.638,186.607 96.954,186.607 98.632 C 186.607 100.489,186.581 100.591,186.100 100.660 C 185.625 100.727,185.590 100.853,185.529 102.701 C 185.470 104.486,185.422 104.671,185.022 104.671 C 184.616 104.671,184.581 104.834,184.581 106.697 C 184.581 108.527,184.540 108.723,184.159 108.723 C 183.642 108.723,183.455 109.506,183.455 111.669 C 183.455 112.978,183.388 113.245,183.005 113.450 C 182.611 113.660,182.555 113.922,182.553 115.540 C 182.551 117.290,182.521 117.403,181.990 117.649 L 181.429 117.909 181.429 116.242 C 181.429 114.736,181.387 114.575,180.988 114.575 C 180.588 114.575,180.540 114.390,180.481 112.606 C 180.420 110.757,180.385 110.631,179.910 110.564 C 179.431 110.496,179.403 110.390,179.403 108.621 C 179.403 106.938,179.358 106.737,178.953 106.631 C 178.549 106.526,178.503 106.324,178.503 104.671 C 178.503 103.017,178.457 102.816,178.053 102.710 C 177.675 102.611,177.603 102.403,177.603 101.409 C 177.603 99.667,177.373 98.775,176.893 98.649 C 176.533 98.555,176.477 98.303,176.477 96.768 C 176.477 95.239,176.415 94.957,176.027 94.714 C 175.672 94.492,175.577 94.189,175.577 93.277 C 175.577 91.493,175.363 90.715,174.873 90.715 C 174.496 90.715,174.451 90.525,174.451 88.916 C 174.451 87.361,174.390 87.079,174.001 86.836 C 173.623 86.599,173.551 86.311,173.551 85.023 C 173.551 83.689,173.478 83.418,172.988 82.928 C 172.507 82.447,172.425 82.160,172.425 80.948 C 172.425 79.815,172.335 79.447,171.975 79.122 C 171.614 78.795,171.525 78.429,171.525 77.263 C 171.525 75.982,171.459 75.758,170.962 75.368 C 170.455 74.969,170.400 74.765,170.400 73.307 C 170.400 71.933,170.332 71.647,169.949 71.408 C 169.563 71.167,169.499 70.884,169.499 69.420 C 169.499 67.902,169.449 67.699,169.049 67.595 C 168.698 67.503,168.599 67.288,168.599 66.618 C 168.599 65.517,168.251 64.603,167.832 64.603 C 167.652 64.603,167.472 64.375,167.433 64.097 L 167.361 63.590 160.015 63.531 L 152.670 63.472 152.513 64.932 M121.553 104.789 C 121.553 105.371,122.592 105.571,125.620 105.571 C 128.381 105.571,128.531 105.594,128.531 106.021 C 128.531 106.405,128.681 106.472,129.544 106.472 L 130.557 106.472 130.557 110.920 C 130.557 115.318,130.551 115.371,130.051 115.591 C 129.676 115.755,129.526 116.037,129.473 116.672 C 129.435 117.144,129.207 117.726,128.967 117.966 C 128.727 118.206,128.531 118.655,128.531 118.965 C 128.531 119.366,128.410 119.527,128.105 119.527 C 127.839 119.527,127.627 119.738,127.538 120.090 C 127.461 120.400,127.238 120.653,127.043 120.653 C 126.848 120.653,126.638 120.846,126.576 121.082 C 126.514 121.318,126.270 121.562,126.034 121.624 C 125.784 121.689,125.605 121.933,125.605 122.207 C 125.605 122.560,125.463 122.679,125.042 122.679 C 124.630 122.679,124.479 122.799,124.479 123.129 C 124.479 123.429,124.329 123.579,124.029 123.579 C 123.734 123.579,123.579 123.729,123.579 124.016 C 123.579 124.370,123.396 124.467,122.622 124.523 C 121.827 124.580,121.654 124.677,121.594 125.098 C 121.528 125.560,121.401 125.605,120.166 125.605 C 118.999 125.605,118.793 125.668,118.692 126.055 C 118.589 126.448,118.384 126.506,117.081 126.508 C 115.159 126.512,114.575 126.675,114.575 127.207 C 114.575 127.929,109.460 127.849,109.357 127.124 C 109.293 126.669,109.142 126.611,107.878 126.551 C 106.656 126.493,106.472 126.426,106.472 126.044 C 106.472 125.704,106.316 125.605,105.780 125.605 C 105.091 125.605,104.446 125.178,104.446 124.721 C 104.446 124.588,104.243 124.479,103.995 124.479 C 103.692 124.479,103.545 124.329,103.545 124.019 C 103.545 123.766,103.292 123.305,102.983 122.996 C 102.673 122.686,102.420 122.235,102.420 121.993 C 102.420 121.703,102.266 121.553,101.970 121.553 C 101.534 121.553,101.519 121.403,101.519 116.939 C 101.519 113.144,101.575 112.324,101.833 112.324 C 102.196 112.324,102.420 111.845,102.420 111.068 C 102.420 110.740,102.551 110.523,102.750 110.523 C 103.164 110.523,103.545 109.830,103.545 109.075 C 103.545 108.674,103.666 108.497,103.941 108.497 C 104.159 108.497,104.460 108.302,104.609 108.062 C 104.767 107.809,105.191 107.597,105.620 107.556 C 106.188 107.501,106.376 107.367,106.431 106.978 C 106.493 106.540,106.637 106.472,107.500 106.472 C 108.347 106.472,108.497 106.404,108.497 106.021 C 108.497 105.607,108.648 105.571,110.407 105.571 C 112.255 105.571,112.320 105.553,112.457 105.008 L 112.598 104.446 117.076 104.446 C 120.938 104.446,121.553 104.493,121.553 104.789 " stroke="none" fill="#24343c" fill-rule="evenodd"></path></g></svg>