<?xml version="1.0" standalone="no"?>
<!DOCTYPE svg PUBLIC "-//W3C//DTD SVG 20010904//EN"
 "http://www.w3.org/TR/2001/REC-SVG-20010904/DTD/svg10.dtd">
<svg version="1.0" xmlns="http://www.w3.org/2000/svg"
 width="1024.000000pt" height="1024.000000pt" viewBox="0 0 1024.000000 1024.000000"
 preserveAspectRatio="xMidYMid meet">

<g transform="translate(0.000000,1024.000000) scale(0.100000,-0.100000)"
fill="#000000" stroke="none">
<path d="M4770 9889 c-987 -63 -1942 -415 -2735 -1008 -355 -265 -715 -625
-986 -986 -480 -638 -794 -1414 -893 -2205 -149 -1189 173 -2393 896 -3352
383 -509 823 -909 1375 -1251 179 -110 578 -312 758 -383 364 -143 781 -255
1145 -309 330 -49 818 -69 1141 -46 1237 88 2376 601 3235 1456 1181 1177
1650 2825 1258 4422 -364 1486 -1483 2736 -2969 3318 -697 273 -1465 392
-2225 344z m839 -388 c444 -62 817 -176 1208 -368 1052 -518 1802 -1511 1992
-2638 38 -226 46 -327 46 -590 0 -262 -8 -364 -45 -587 -219 -1297 -1157
-2383 -2445 -2831 -235 -81 -481 -139 -761 -179 -140 -20 -199 -22 -504 -22
-376 0 -449 6 -755 65 -489 95 -962 291 -1385 572 -442 295 -847 718 -1116
1170 -361 605 -539 1322 -496 2000 34 535 154 974 390 1431 185 359 365 601
671 907 296 295 568 494 931 678 416 212 833 340 1285 395 196 24 198 24 525
21 247 -2 334 -7 459 -24z"/>
<path d="M4830 9354 c-1006 -86 -1855 -523 -2454 -1265 -240 -297 -453 -710
-556 -1076 -122 -436 -146 -894 -69 -1342 164 -954 818 -1810 1736 -2270 550
-275 1132 -397 1763 -370 1046 45 2003 546 2612 1366 309 416 499 887 574
1424 25 174 25 566 1 739 -90 639 -335 1176 -758 1657 -541 614 -1301 1007
-2164 1119 -114 15 -580 27 -685 18z m530 -259 c740 -78 1403 -457 1824 -1043
215 -299 353 -639 413 -1017 24 -155 24 -488 0 -645 -81 -522 -309 -964 -689
-1338 -206 -203 -393 -335 -663 -467 -379 -187 -736 -269 -1175 -269 -232 0
-349 12 -558 55 -837 172 -1538 756 -1837 1530 -102 265 -146 515 -146 824 2
607 229 1154 666 1604 379 390 863 645 1405 741 234 41 522 51 760 25z"/>
<path d="M4895 8949 c-771 -74 -1450 -611 -1703 -1349 -368 -1074 199 -2233
1267 -2590 209 -70 401 -100 633 -100 1006 0 1846 734 1993 1741 20 139 20
414 -1 560 -48 347 -189 683 -403 964 -64 84 -242 266 -330 337 -411 331 -930
487 -1456 437z m355 -249 c94 -23 258 -98 335 -154 81 -59 193 -176 250 -261
326 -490 196 -1157 -288 -1473 -267 -174 -597 -205 -890 -82 -225 94 -427 292
-527 515 -77 172 -111 379 -92 552 55 484 395 849 860 923 83 13 254 3 352
-20z"/>
</g>
</svg>
