<?xml version="1.0" standalone="no"?>
<!DOCTYPE svg PUBLIC "-//W3C//DTD SVG 20010904//EN"
 "http://www.w3.org/TR/2001/REC-SVG-20010904/DTD/svg10.dtd">
<svg version="1.0" xmlns="http://www.w3.org/2000/svg"
 width="386.000000pt" height="480.000000pt" viewBox="0 0 386.000000 480.000000"
 preserveAspectRatio="xMidYMid meet">

<g transform="translate(0.000000,480.000000) scale(0.100000,-0.100000)"
fill="#000000" stroke="none">
<path d="M1769 4615 c-138 -27 -287 -104 -413 -211 -72 -61 -72 -61 -152 -68
-252 -22 -443 -91 -585 -213 -190 -161 -289 -395 -289 -680 l0 -91 -49 -58
c-74 -87 -140 -203 -179 -316 -78 -228 -45 -464 95 -675 21 -32 77 -99 125
-149 l88 -91 10 -82 c40 -312 199 -548 455 -672 119 -57 223 -80 400 -86 l150
-5 51 -39 c94 -72 211 -135 310 -169 136 -45 295 -53 429 -21 176 42 335 139
484 297 81 85 82 86 154 101 261 54 478 215 591 440 44 88 77 218 83 333 5 96
8 108 34 137 141 163 219 363 219 563 0 214 -68 374 -242 572 -61 69 -68 81
-68 120 0 66 -34 215 -68 301 -57 140 -137 248 -247 332 -142 108 -296 163
-485 172 -115 6 -115 6 -160 43 -223 186 -494 264 -741 215z m366 -74 c85 -25
212 -87 280 -138 57 -42 56 -44 -64 -62 -95 -15 -232 -53 -341 -97 l-87 -34
-88 30 c-114 39 -293 78 -389 87 -75 6 -76 6 -59 25 34 38 190 135 259 162 38
15 98 33 134 41 88 20 262 13 355 -14z m480 -318 c37 -43 86 -105 110 -138 48
-68 147 -237 141 -242 -2 -2 -44 7 -92 22 -49 14 -141 36 -205 49 -107 21
-125 29 -220 86 -57 35 -157 89 -222 121 l-118 57 58 22 c100 37 224 70 323
84 160 23 148 26 225 -61z m205 46 c319 -74 533 -321 585 -673 l7 -49 -39 30
c-21 16 -65 47 -98 68 -66 42 -293 155 -312 155 -6 0 -35 44 -63 98 -66 124
-142 237 -220 331 l-62 74 58 -7 c33 -4 97 -16 144 -27z m-1643 -58 c-78 -104
-144 -217 -197 -342 l-49 -112 -117 -59 c-135 -68 -252 -142 -341 -216 -34
-29 -65 -52 -69 -52 -4 0 -4 37 -1 83 29 418 299 701 722 757 113 14 110 18
52 -59z m411 38 c86 -17 182 -41 252 -65 9 -3 -19 -23 -70 -50 -78 -42 -229
-138 -311 -198 -22 -17 -82 -39 -165 -61 -71 -19 -162 -46 -203 -60 -41 -14
-76 -23 -78 -21 -8 7 109 230 160 306 27 41 70 99 95 129 l46 53 85 -6 c47 -4
132 -16 189 -27z m544 -189 c107 -53 191 -101 186 -105 -2 -2 -66 2 -143 7
-138 10 -435 -1 -560 -22 -27 -4 -51 -7 -53 -5 -6 5 182 118 277 166 l94 48
51 -21 c28 -11 95 -41 148 -68z m-22 -171 c470 -58 854 -385 970 -824 74 -284
27 -630 -110 -795 l-29 -35 21 60 c125 371 4 764 -312 1018 -331 265 -833 308
-1208 101 -266 -146 -443 -381 -498 -662 -32 -164 -8 -370 60 -517 40 -86 41
-109 3 -48 -121 191 -157 343 -157 656 0 136 3 165 25 242 153 528 683 873
1235 804z m367 -35 c51 -29 69 -53 23 -29 -18 9 -60 28 -94 41 l-61 25 45 -6
c25 -3 64 -17 87 -31z m-957 3 c-14 -6 -56 -26 -95 -44 -67 -32 -69 -33 -40
-8 39 34 103 65 135 64 l25 0 -25 -12z m1159 -28 c42 -11 110 -31 152 -45 76
-25 77 -25 99 -77 13 -29 40 -104 62 -167 l38 -115 -112 116 c-104 106 -220
212 -308 281 -42 33 -30 34 69 7z m-1501 -138 c-73 -71 -167 -170 -207 -220
-41 -50 -76 -89 -78 -88 -4 5 35 162 62 253 l25 82 102 35 c159 55 192 65 211
66 10 1 -37 -52 -115 -128z m1989 -54 c74 -42 143 -88 201 -135 l42 -34 0 -78
c0 -87 -29 -273 -57 -364 l-18 -58 -47 83 c-25 46 -76 126 -112 176 -57 81
-69 106 -95 202 -26 92 -65 209 -96 283 -6 15 4 13 56 -11 35 -16 92 -45 126
-64z m-2283 -34 c-13 -43 -35 -136 -49 -208 -20 -101 -33 -141 -57 -180 -67
-107 -157 -268 -183 -330 -16 -36 -31 -65 -35 -65 -10 0 -84 191 -109 280 -11
41 -27 115 -34 163 l-14 88 68 59 c90 78 202 152 324 217 55 29 103 53 106 53
4 0 -4 -35 -17 -77z m1351 -137 c114 -29 260 -97 349 -160 71 -51 188 -170
235 -239 168 -247 192 -585 61 -852 -56 -114 -89 -153 -50 -59 50 120 63 194
57 329 -5 135 -31 231 -93 343 -162 289 -522 473 -881 448 -104 -7 -251 -42
-335 -79 -158 -70 -325 -215 -406 -353 -149 -252 -142 -568 18 -811 l32 -48
-41 45 c-102 115 -180 296 -201 468 -30 242 56 491 234 680 122 129 250 210
422 267 180 61 411 69 599 21z m1330 -171 c152 -213 189 -442 110 -675 -38
-113 -139 -281 -149 -249 -2 8 -7 37 -11 64 -11 85 -56 245 -101 357 l-42 106
25 79 c33 105 61 240 69 341 l7 83 25 -23 c13 -13 43 -50 67 -83z m-504 -13
c19 -57 4 -44 -29 26 -30 62 -31 65 -7 37 14 -16 30 -45 36 -63z m-2166 -26
c-16 -35 -31 -58 -33 -51 -5 19 48 115 63 115 0 0 -13 -29 -30 -64z m-545 -7
c0 -69 85 -330 148 -455 l31 -61 -30 -91 c-40 -126 -66 -247 -79 -377 -7 -60
-13 -111 -15 -113 -1 -1 -33 30 -69 70 -83 89 -139 181 -180 296 -28 81 -31
96 -30 222 0 121 3 143 27 215 33 93 82 186 141 266 41 57 56 65 56 28z m1865
-48 c172 -46 348 -154 453 -281 65 -79 135 -220 156 -317 64 -290 -64 -594
-324 -773 l-35 -24 41 49 c193 233 222 542 77 803 -69 125 -212 251 -345 303
-182 71 -392 64 -563 -21 -150 -74 -249 -172 -325 -322 -55 -111 -74 -205 -67
-342 8 -163 57 -294 153 -406 24 -28 44 -54 44 -56 0 -9 -61 38 -121 94 -160
147 -242 333 -242 542 0 129 18 203 80 330 40 82 60 108 142 190 137 135 278
210 466 246 101 19 308 12 410 -15z m988 -109 c30 -48 67 -112 82 -141 l27
-54 -28 -71 c-32 -85 -102 -226 -110 -226 -4 0 -4 21 0 46 7 57 -10 351 -27
461 -8 45 -10 80 -6 77 5 -3 33 -44 62 -92z m-2407 -230 c0 -205 4 -290 17
-366 10 -54 16 -101 13 -103 -6 -7 -102 129 -169 240 l-65 109 15 36 c40 98
175 352 187 352 0 0 1 -120 2 -268z m1339 82 c215 -52 394 -219 461 -429 75
-237 18 -480 -154 -654 -41 -42 -63 -60 -48 -41 188 248 174 555 -34 759 -117
116 -254 168 -420 158 -113 -6 -186 -30 -283 -94 -248 -164 -317 -506 -152
-763 l35 -55 -54 58 c-61 66 -117 170 -142 267 -21 79 -24 234 -5 310 51 213
230 407 431 471 120 38 243 42 365 13z m1268 -274 c31 -93 54 -202 72 -337 5
-41 5 -42 -78 -118 -79 -74 -302 -233 -313 -223 -3 3 4 41 15 84 22 86 61 302
61 339 0 13 38 100 84 192 46 92 87 179 91 192 l8 25 12 -25 c7 -13 29 -71 48
-129z m-1293 3 c171 -47 308 -187 355 -364 17 -63 19 -175 4 -239 -31 -135
-140 -275 -263 -335 -65 -32 -82 -36 -197 -44 -80 -6 -143 -6 -170 0 -114 26
-267 149 -321 259 -103 207 -62 451 100 602 137 128 310 171 492 121z m-1492
-99 c45 -75 113 -169 202 -280 33 -41 47 -74 75 -171 19 -66 52 -164 74 -217
22 -53 37 -96 35 -96 -3 0 -46 16 -96 35 -124 48 -288 135 -372 196 l-69 51 6
127 c4 79 16 167 32 236 27 117 54 209 61 202 2 -2 25 -39 52 -83z m2457 -346
c-9 -46 -28 -128 -43 -182 l-26 -99 -80 -38 c-77 -35 -316 -122 -316 -115 0 3
40 36 90 76 142 113 206 188 335 390 27 41 50 70 52 63 3 -7 -3 -50 -12 -95z
m394 -113 c-39 -285 -191 -494 -443 -610 -75 -35 -184 -70 -192 -62 -3 3 10
29 29 58 49 76 119 219 157 320 31 81 34 86 83 113 91 50 240 153 306 211 35
31 65 54 67 52 2 -2 -1 -39 -7 -82z m-2342 -138 c63 -58 154 -130 233 -182 71
-47 130 -87 130 -89 0 -11 -326 52 -386 74 -13 5 -32 31 -49 67 -24 53 -105
277 -105 291 0 6 13 -6 177 -161z m-457 -84 c73 -40 185 -89 285 -122 l80 -27
43 -75 c71 -124 140 -225 214 -310 l71 -82 -124 6 c-151 7 -225 25 -349 85
-80 39 -109 60 -186 137 -69 69 -100 109 -132 170 -42 83 -84 212 -96 298 l-7
48 73 -49 c40 -27 98 -62 128 -79z m2283 -85 c-41 -102 -102 -218 -160 -305
l-54 -83 -149 0 c-101 0 -184 6 -262 19 -178 31 -176 27 -68 96 51 32 127 84
170 116 66 49 93 61 176 84 104 28 281 92 330 119 16 8 32 15 36 16 4 0 -5
-28 -19 -62z m-1478 -156 c146 -19 153 -21 260 -74 61 -30 144 -68 185 -83 41
-16 79 -32 83 -36 10 -7 -212 -97 -308 -124 -33 -9 -103 -26 -155 -36 l-95
-19 -64 68 c-76 80 -150 178 -214 284 -26 43 -47 79 -47 81 0 2 46 -7 103 -19
56 -13 170 -32 252 -42z m895 24 c0 -5 -208 -140 -249 -161 -41 -21 -58 -17
-226 52 -140 56 -152 68 -60 57 122 -15 232 -9 355 19 174 39 180 41 180 33z
m-105 -280 c86 -19 178 -30 274 -34 l143 -7 -63 -62 c-156 -151 -296 -225
-486 -253 -128 -20 -315 11 -436 71 -55 28 -187 112 -187 120 0 4 21 10 47 14
107 16 389 112 483 165 40 23 49 23 225 -14z"/>
<path d="M1942 3740 c2 -37 -5 -44 -35 -34 -10 3 -24 0 -32 -6 -7 -6 -32 -13
-55 -14 -35 -3 -43 0 -56 23 l-15 26 5 -26 c5 -21 1 -28 -15 -32 -12 -3 -18
-10 -14 -16 4 -8 12 -8 25 -1 21 11 46 5 73 -18 16 -15 18 -14 24 6 3 12 8 22
12 23 3 1 23 2 44 3 53 4 69 32 46 81 -7 16 -8 13 -7 -15z"/>
<path d="M1980 3728 c0 -26 4 -38 8 -30 8 12 4 72 -4 72 -2 0 -4 -19 -4 -42z"/>
<path d="M1815 3710 c-3 -5 1 -10 9 -10 9 0 16 5 16 10 0 6 -4 10 -9 10 -6 0
-13 -4 -16 -10z"/>
<path d="M1630 3694 c0 -11 7 -29 15 -40 19 -26 20 1 0 36 -13 23 -14 23 -15
4z"/>
<path d="M2174 3702 c7 -12 -19 -23 -39 -16 -10 4 -15 0 -15 -15 0 -16 -6 -21
-24 -21 -13 0 -26 6 -29 13 -2 6 -8 9 -12 5 -4 -4 -5 -14 -2 -23 9 -22 54 -19
69 5 9 14 24 20 46 20 26 0 33 4 30 17 -2 9 -9 18 -17 21 -8 3 -11 0 -7 -6z"/>
<path d="M1590 3691 c0 -7 5 -21 11 -33 9 -16 7 -23 -11 -35 -14 -10 -19 -21
-15 -34 8 -24 -20 -37 -46 -20 -21 13 -26 2 -7 -17 17 -17 32 -15 62 9 20 16
24 24 16 34 -8 9 -6 14 6 19 13 5 15 14 10 38 -7 34 -26 63 -26 39z"/>
<path d="M2347 3670 c-8 -21 -16 -28 -27 -24 -44 19 -60 16 -70 -11 -5 -14
-10 -34 -9 -43 0 -9 5 -1 11 18 9 31 11 33 22 18 8 -11 16 -14 22 -8 10 10 97
-12 118 -29 13 -11 29 9 47 56 8 23 8 24 -6 13 -8 -7 -15 -18 -15 -25 0 -7 -7
-18 -15 -25 -12 -10 -15 -9 -15 8 0 11 -7 23 -16 26 -22 8 -22 8 -28 -11 -3
-10 -4 1 -2 25 5 50 -1 54 -17 12z"/>
<path d="M2475 3615 c-9 -20 -14 -40 -11 -43 3 -3 13 12 21 33 9 20 14 40 11
43 -3 3 -13 -12 -21 -33z"/>
<path d="M1409 3592 c5 -10 18 -25 27 -33 16 -13 16 -12 0 19 -9 17 -21 32
-27 32 -6 0 -6 -6 0 -18z"/>
<path d="M1370 3595 c0 -4 7 -19 15 -35 14 -26 14 -30 1 -30 -9 0 -20 9 -26
20 -6 11 -15 20 -21 20 -6 0 -1 -13 11 -29 19 -28 13 -51 -10 -36 -12 7 -70
-22 -70 -35 0 -5 8 -7 18 -3 15 6 15 5 -2 -15 -17 -20 -20 -20 -42 -5 -25 16
-33 6 -11 -16 10 -10 8 -14 -6 -22 -9 -6 -15 -15 -12 -20 8 -12 92 57 101 83
4 13 9 17 16 10 6 -6 23 -1 48 16 l39 25 -20 38 c-18 35 -29 48 -29 34z"/>
<path d="M2567 3542 c-12 -2 -16 -10 -12 -21 4 -15 0 -17 -27 -14 -28 3 -30 2
-15 -7 10 -7 28 -9 41 -6 12 3 33 -2 47 -12 126 -84 123 -83 137 -68 16 16 8
36 -14 36 -17 0 -18 12 -3 27 6 6 9 17 6 25 -3 8 -11 1 -23 -19 -11 -18 -22
-33 -26 -33 -12 0 -9 35 4 48 6 6 9 14 6 18 -4 3 -14 -6 -23 -20 l-17 -26 -27
21 c-14 11 -28 28 -31 38 -3 9 -12 15 -23 13z m158 -112 c3 -5 2 -10 -4 -10
-5 0 -13 5 -16 10 -3 6 -2 10 4 10 5 0 13 -4 16 -10z"/>
<path d="M2770 3405 c-13 -14 -21 -27 -18 -30 2 -3 15 6 28 20 13 14 21 27 18
30 -2 3 -15 -6 -28 -20z"/>
<path d="M1212 838 c-7 -7 -12 -25 -12 -41 0 -28 8 -34 84 -61 15 -5 17 -9 7
-19 -9 -9 -16 -9 -31 1 -24 14 -70 16 -70 2 0 -24 41 -50 78 -50 50 0 82 23
82 59 0 33 -11 44 -63 61 -20 6 -35 16 -31 21 3 5 13 5 25 -2 11 -5 31 -9 45
-7 23 3 24 4 9 26 -13 17 -26 22 -64 22 -26 0 -52 -5 -59 -12z"/>
<path d="M1380 759 c0 -88 1 -90 23 -87 18 2 23 10 25 46 2 28 8 42 18 42 10
0 14 -12 14 -45 0 -42 2 -45 25 -45 25 0 26 1 23 63 l-3 62 -37 3 c-33 3 -38
7 -38 28 0 19 -5 24 -25 24 -25 0 -25 -1 -25 -91z"/>
<path d="M2102 833 c4 -22 38 -30 49 -11 15 22 10 28 -22 28 -24 0 -30 -4 -27
-17z"/>
<path d="M1571 797 c-14 -6 -26 -18 -29 -26 -4 -11 5 -12 44 -7 35 5 45 4 34
-3 -8 -6 -23 -11 -32 -11 -10 0 -27 -9 -38 -20 -16 -16 -18 -25 -10 -40 9 -17
20 -19 76 -18 l66 2 -4 54 c-3 29 -9 57 -14 61 -17 16 -69 21 -93 8z m46 -84
c-9 -9 -20 -13 -24 -9 -4 4 -1 11 7 16 25 16 35 11 17 -7z"/>
<path d="M1984 800 c-46 -18 -42 -65 6 -75 49 -11 43 -23 -8 -17 l-47 5 19
-22 c34 -38 126 -21 126 23 0 18 -22 35 -57 46 -25 7 -24 8 17 9 38 1 42 3 30
15 -20 19 -60 26 -86 16z"/>
<path d="M2381 798 c-37 -20 -48 -64 -24 -97 41 -54 133 -32 133 33 0 54 -60
89 -109 64z m54 -59 c0 -28 -29 -38 -39 -13 -7 19 11 47 28 41 6 -2 11 -14 11
-28z"/>
<path d="M1710 734 c0 -62 1 -65 23 -62 18 2 23 10 25 46 2 28 8 42 18 42 10
0 14 -12 14 -45 0 -41 2 -45 24 -45 22 0 25 5 28 42 4 57 26 62 30 6 3 -36 7
-44 26 -46 22 -3 23 -1 20 60 l-3 63 -102 3 -103 2 0 -66z"/>
<path d="M2102 738 c3 -60 4 -63 28 -63 24 0 25 3 28 63 l3 62 -31 0 -31 0 3
-62z"/>
<path d="M2182 712 c3 -85 3 -87 28 -87 19 0 26 6 28 26 3 22 7 25 31 21 50
-7 79 59 46 105 -13 19 -25 22 -76 22 l-60 -1 3 -86z m93 23 c0 -28 -29 -25
-33 3 -3 19 0 23 15 20 10 -2 18 -12 18 -23z"/>
<path d="M2510 761 c0 -22 4 -51 9 -64 9 -23 15 -25 70 -24 l61 0 0 64 c0 61
-1 63 -25 63 -22 0 -25 -4 -25 -39 0 -36 -14 -61 -27 -48 -2 3 -7 24 -10 46
-5 35 -9 41 -29 41 -21 0 -24 -5 -24 -39z"/>
<path d="M2680 735 c0 -63 1 -65 25 -65 23 0 25 4 25 40 0 30 5 42 18 47 17 7
32 22 32 36 0 4 -22 7 -50 7 l-50 0 0 -65z"/>
<path d="M250 551 c0 -14 8 -21 28 -23 26 -3 27 -6 30 -65 3 -62 3 -63 32 -63
l30 0 0 65 c0 63 1 65 25 65 18 0 25 5 25 20 0 18 -7 20 -85 20 -77 0 -85 -2
-85 -19z"/>
<path d="M750 485 c0 -84 0 -85 25 -85 23 0 25 4 25 40 0 28 4 40 14 40 16 0
26 -21 26 -56 0 -19 5 -24 26 -24 26 0 26 1 22 56 -5 62 -19 77 -60 68 -25 -5
-28 -3 -28 20 0 21 -5 26 -25 26 -25 0 -25 -1 -25 -85z"/>
<path d="M1080 555 c0 -9 9 -15 25 -15 16 0 25 6 25 15 0 9 -9 15 -25 15 -16
0 -25 -6 -25 -15z"/>
<path d="M1490 485 c0 -84 0 -85 25 -85 25 0 25 1 25 85 0 84 0 85 -25 85 -25
0 -25 -1 -25 -85z"/>
<path d="M2070 544 c0 -22 -3 -25 -23 -20 -38 9 -67 -19 -67 -63 0 -51 20 -66
87 -66 l53 0 0 88 c0 86 0 87 -25 87 -20 0 -25 -5 -25 -26z m-5 -89 c0 -28
-29 -25 -33 3 -3 19 0 23 15 20 10 -2 18 -12 18 -23z"/>
<path d="M2220 566 c0 -2 14 -41 31 -85 30 -79 32 -81 64 -81 31 0 34 3 58 68
14 37 28 75 32 85 6 14 2 17 -23 17 -28 0 -32 -4 -47 -55 -8 -30 -17 -55 -19
-55 -2 0 -11 25 -21 55 -15 50 -19 55 -46 55 -16 0 -29 -2 -29 -4z"/>
<path d="M2916 544 c-27 -28 -33 -49 -16 -59 6 -3 10 -21 10 -39 0 -39 15 -56
52 -56 21 0 28 5 28 20 0 11 -7 20 -15 20 -9 0 -15 9 -15 25 0 14 7 28 15 31
8 4 15 12 15 19 0 7 -7 15 -15 19 -8 3 -15 15 -15 26 0 27 -12 25 -44 -6z"/>
<path d="M3010 555 c0 -9 9 -15 25 -15 16 0 25 6 25 15 0 9 -9 15 -25 15 -16
0 -25 -6 -25 -15z"/>
<path d="M3590 485 c0 -84 0 -85 25 -85 25 0 25 1 25 85 0 84 0 85 -25 85 -25
0 -25 -1 -25 -85z"/>
<path d="M460 523 c-43 -15 -53 -80 -19 -114 17 -17 29 -20 62 -16 22 3 47 13
56 21 14 15 11 16 -31 16 -26 0 -50 5 -53 10 -4 6 13 10 44 10 59 0 66 16 26
55 -23 24 -52 30 -85 18z m50 -43 c0 -5 -9 -10 -21 -10 -11 0 -17 5 -14 10 3
6 13 10 21 10 8 0 14 -4 14 -10z"/>
<path d="M605 505 c-14 -13 -25 -33 -25 -45 0 -30 44 -70 77 -70 29 0 73 24
73 39 0 14 -43 21 -57 9 -20 -16 -46 9 -33 32 8 14 18 17 50 13 45 -6 53 7 18
31 -33 23 -75 20 -103 -9z"/>
<path d="M986 523 c-4 -4 -22 -6 -41 -5 l-35 3 0 -61 c0 -57 1 -60 24 -60 25
0 36 16 36 56 0 15 6 24 15 24 11 0 15 -11 15 -40 0 -36 3 -40 25 -40 24 0 25
3 25 55 0 43 -4 56 -19 65 -23 12 -35 13 -45 3z"/>
<path d="M1192 520 c-29 -12 -44 -52 -32 -84 18 -49 79 -60 126 -24 l28 22
-25 7 c-13 3 -30 2 -36 -4 -20 -15 -45 0 -41 25 3 20 8 23 46 20 23 -2 42 1
42 6 0 28 -69 48 -108 32z"/>
<path d="M1360 523 c-8 -3 -21 -10 -28 -16 -20 -16 6 -28 48 -22 33 5 33 5 10
-6 -14 -6 -35 -15 -47 -20 -25 -9 -30 -40 -10 -57 7 -6 39 -9 72 -7 l60 4 -3
53 c-2 29 -7 57 -11 61 -10 11 -73 18 -91 10z m50 -82 c0 -11 -31 -24 -39 -16
-3 3 1 10 9 15 19 12 30 12 30 1z"/>
<path d="M1672 515 c-32 -23 -17 -37 32 -31 36 5 38 5 16 -5 -14 -6 -35 -15
-47 -20 -25 -9 -30 -40 -10 -57 7 -6 39 -9 72 -7 l59 4 -3 53 c-1 29 -6 57
-11 61 -16 18 -85 19 -108 2z m68 -74 c0 -11 -31 -24 -39 -16 -3 3 1 10 9 15
19 12 30 12 30 1z"/>
<path d="M1896 523 c-4 -4 -22 -6 -41 -5 l-35 3 0 -61 c0 -57 1 -60 25 -60 23
0 25 4 25 40 0 29 4 40 15 40 10 0 17 -14 21 -40 6 -34 10 -40 32 -40 24 0 24
2 20 56 -5 53 -17 73 -44 74 -6 0 -14 -3 -18 -7z"/>
<path d="M2442 520 c-29 -12 -44 -52 -32 -84 17 -45 76 -60 118 -30 25 18 31
84 9 103 -20 16 -69 22 -95 11z m53 -61 c0 -15 -7 -25 -17 -27 -13 -3 -18 3
-18 21 0 13 3 27 7 31 13 12 28 -1 28 -25z"/>
<path d="M2596 509 c-51 -40 -28 -107 39 -116 32 -4 45 0 64 18 l24 22 -22 9
c-13 5 -29 3 -41 -4 -27 -17 -50 4 -34 30 9 13 22 16 53 14 33 -3 40 -1 35 11
-6 16 -46 37 -73 37 -10 0 -30 -9 -45 -21z"/>
<path d="M2762 515 c-32 -23 -17 -37 32 -31 l41 5 -39 -13 c-45 -14 -70 -44
-56 -66 7 -11 27 -15 75 -15 l65 0 0 46 c0 25 -6 53 -13 62 -18 25 -77 32
-105 12z m55 -82 c-9 -9 -19 -14 -23 -11 -10 10 6 28 24 28 15 0 15 -1 -1 -17z"/>
<path d="M3130 523 c-25 -9 -40 -35 -40 -69 0 -62 79 -86 125 -39 29 29 32 55
8 84 -19 22 -67 34 -93 24z m48 -66 c2 -19 -1 -27 -13 -27 -19 0 -30 24 -21
46 9 23 31 11 34 -19z"/>
<path d="M3337 523 c-4 -3 -23 -6 -42 -5 l-35 1 0 -59 c0 -57 1 -60 25 -60 23
0 25 4 25 40 0 29 4 40 15 40 11 0 15 -11 15 -41 0 -38 1 -40 28 -37 26 3 27
6 25 51 -2 61 -30 96 -56 70z"/>
<path d="M3442 514 c-32 -22 -17 -36 32 -30 l41 6 -43 -16 c-47 -17 -61 -37
-45 -63 8 -12 26 -16 72 -16 l61 0 0 52 c0 42 -4 55 -22 67 -29 20 -67 20 -96
0z m55 -81 c-9 -9 -19 -14 -23 -11 -10 10 6 28 24 28 15 0 15 -1 -1 -17z"/>
<path d="M1080 460 c0 -57 1 -60 25 -60 24 0 25 3 25 60 0 57 -1 60 -25 60
-24 0 -25 -3 -25 -60z"/>
<path d="M3010 460 c0 -57 1 -60 25 -60 24 0 25 3 25 60 0 57 -1 60 -25 60
-24 0 -25 -3 -25 -60z"/>
<path d="M1479 271 c-55 -56 -27 -145 51 -157 56 -9 120 52 74 70 -10 4 -25
-1 -35 -10 -29 -26 -54 -14 -57 29 -4 42 17 59 50 38 19 -12 58 -7 58 7 0 13
-15 29 -37 41 -37 19 -73 13 -104 -18z"/>
<path d="M1817 293 c-4 -3 -7 -44 -7 -90 0 -82 0 -83 25 -83 25 0 25 1 25 90
0 81 -2 90 -18 90 -10 0 -22 -3 -25 -7z"/>
<path d="M1900 211 c0 -90 0 -91 25 -91 25 0 25 1 25 85 0 47 -4 85 -9 85 -5
0 -16 3 -25 6 -14 5 -16 -6 -16 -85z"/>
<path d="M1660 230 c-42 -42 -7 -120 55 -120 34 0 75 37 75 68 0 33 -8 45 -37
61 -33 17 -71 13 -93 -9z m75 -40 c8 -24 -1 -40 -21 -40 -17 0 -28 24 -20 45
8 22 34 18 41 -5z"/>
<path d="M1990 230 c-11 -11 -20 -33 -20 -49 0 -58 59 -86 119 -55 l36 19 -45
3 c-66 5 -75 22 -12 22 45 0 52 3 52 20 0 32 -36 60 -75 60 -22 0 -43 -8 -55
-20z m70 -25 c0 -8 -7 -15 -15 -15 -26 0 -18 20 13 29 1 1 2 -6 2 -14z"/>
<path d="M2155 230 c-20 -22 -19 -60 1 -89 13 -18 23 -22 45 -17 22 4 29 2 29
-9 0 -17 -2 -17 -52 -6 -41 10 -46 5 -24 -24 10 -14 26 -20 54 -20 62 0 72 15
72 104 l0 77 -55 0 c-39 1 -59 -3 -70 -16z m73 -48 c2 -14 -2 -22 -12 -22 -19
0 -29 17 -22 36 8 22 30 12 34 -14z"/>
<path d="M2329 232 c-25 -21 -30 -71 -10 -96 21 -25 77 -31 107 -11 31 20 24
30 -21 27 -18 -1 -36 2 -40 8 -4 6 13 10 45 10 49 0 51 1 45 23 -16 53 -82 74
-126 39z m69 -37 c-3 -3 -13 -2 -22 1 -14 5 -15 9 -4 15 13 8 36 -6 26 -16z"/>
</g>
</svg>
