<?xml version="1.0" standalone="no"?>
<!DOCTYPE svg PUBLIC "-//W3C//DTD SVG 20010904//EN"
 "http://www.w3.org/TR/2001/REC-SVG-20010904/DTD/svg10.dtd">
<svg version="1.0" xmlns="http://www.w3.org/2000/svg"
 width="280.000000pt" height="356.000000pt" viewBox="0 0 280.000000 356.000000"
 preserveAspectRatio="xMidYMid meet">

<g transform="translate(0.000000,356.000000) scale(0.100000,-0.100000)"
fill="#000000" stroke="none">
<path d="M1480 3521 c-7 -13 -7 -22 0 -26 13 -8 30 3 30 20 0 23 -18 27 -30 6z"/>
<path d="M1527 3533 c-13 -12 -7 -43 8 -43 9 0 15 9 15 25 0 24 -10 32 -23 18z"/>
<path d="M1221 3472 c-11 -21 -6 -32 16 -32 15 0 18 36 4 45 -6 3 -15 -3 -20
-13z"/>
<path d="M1266 3474 c-9 -24 12 -44 24 -24 5 8 8 19 7 24 -6 17 -24 17 -31 0z"/>
<path d="M1360 3461 c-7 -13 -7 -22 0 -26 13 -8 30 3 30 20 0 23 -18 27 -30 6z"/>
<path d="M1406 3473 c-12 -12 -6 -43 9 -43 8 0 15 9 15 19 0 21 -13 34 -24 24z"/>
<path d="M634 3445 c-7 -17 4 -37 17 -30 12 8 12 45 -1 45 -6 0 -13 -7 -16
-15z"/>
<path d="M736 3434 c-8 -21 -1 -28 19 -20 9 3 15 11 13 18 -7 19 -25 20 -32 2z"/>
<path d="M1495 3424 c-58 -35 -84 -74 -48 -74 14 0 14 -2 -3 -21 l-18 -20 -8
20 c-7 21 -19 26 -31 14 -4 -3 1 -12 11 -20 16 -13 15 -14 -5 -10 -15 3 -23
-1 -26 -15 -3 -12 -10 -17 -17 -13 -6 4 -20 -1 -31 -11 -18 -16 -19 -16 -19 4
0 22 -24 30 -35 12 -3 -5 1 -10 9 -10 9 0 16 -5 16 -11 0 -6 -9 -9 -20 -6 -10
3 -21 0 -23 -6 -2 -6 -9 -7 -16 -2 -10 5 -12 23 -8 63 3 31 2 51 -3 46 -11
-12 -17 -125 -7 -141 12 -19 33 -16 77 12 22 14 43 25 46 25 20 0 112 52 133
74 24 26 24 26 3 26 -34 0 -26 18 17 40 37 19 57 37 49 45 -2 2 -21 -7 -43
-21z"/>
<path d="M2432 3418 c2 -13 8 -23 13 -23 6 0 11 10 13 23 2 15 -2 22 -13 22
-11 0 -15 -7 -13 -22z"/>
<path d="M1756 3414 c-3 -9 -6 -28 -6 -42 0 -35 -13 -54 -32 -47 -8 3 -21 -1
-28 -10 -11 -13 -11 -21 -1 -36 10 -17 9 -23 -11 -39 -13 -11 -17 -19 -10 -20
13 0 36 23 64 63 13 18 23 23 43 20 26 -5 49 8 65 36 6 13 4 16 -14 16 -12 -1
-28 -5 -35 -9 -19 -12 -32 14 -26 52 6 34 1 43 -9 16z"/>
<path d="M390 3393 c-18 -15 -39 -43 -47 -62 -14 -32 -13 -36 3 -48 10 -7 21
-13 26 -13 14 0 9 37 -7 50 -14 12 -13 16 6 37 13 12 28 23 35 23 12 0 28 29
20 37 -2 2 -18 -9 -36 -24z"/>
<path d="M1815 3390 c-3 -5 1 -10 9 -10 8 0 18 5 21 10 3 6 -1 10 -9 10 -8 0
-18 -4 -21 -10z"/>
<path d="M1997 3383 c-13 -12 -7 -43 8 -43 8 0 15 5 15 11 0 8 5 7 16 -2 13
-10 17 -10 25 2 12 19 11 26 -2 35 -6 3 -15 1 -19 -7 -7 -10 -12 -10 -23 -1
-7 7 -17 9 -20 5z"/>
<path d="M2337 3373 c-3 -10 -8 -38 -12 -63 -4 -32 -3 -41 4 -30 12 18 26 98
18 106 -3 3 -8 -3 -10 -13z"/>
<path d="M606 3343 c-9 -42 -10 -108 -2 -121 11 -18 31 -14 51 8 10 11 24 20
31 20 28 0 47 81 22 96 -6 4 -17 -1 -25 -11 -17 -24 -17 -35 1 -35 30 0 25
-19 -9 -36 -55 -26 -69 -14 -61 51 7 58 2 74 -8 28z"/>
<path d="M994 3355 c-8 -19 5 -37 19 -28 7 4 19 6 29 5 21 -4 34 16 20 30 -8
8 -16 7 -27 -2 -10 -8 -15 -9 -15 -1 0 16 -20 14 -26 -4z"/>
<path d="M1563 3296 c-24 -26 -46 -60 -52 -82 -13 -52 -23 -178 -12 -144 5 14
9 43 10 65 2 86 37 145 85 145 17 0 48 39 40 52 -10 16 -30 6 -71 -36z"/>
<path d="M2520 3319 c-9 -17 -8 -23 5 -33 16 -12 15 -14 -10 -34 -17 -14 -22
-22 -13 -22 23 0 48 34 55 74 4 29 2 36 -10 36 -9 0 -21 -9 -27 -21z"/>
<path d="M522 3305 c-9 -20 -8 -26 6 -35 15 -9 14 -13 -13 -35 -16 -14 -24
-25 -17 -25 32 0 72 71 58 105 -8 22 -21 18 -34 -10z"/>
<path d="M796 3308 c-15 -21 -15 -24 1 -36 17 -12 16 -15 -12 -38 -33 -26 -23
-33 12 -9 25 17 41 81 25 97 -6 6 -15 2 -26 -14z"/>
<path d="M2121 3292 c-18 -12 -49 -17 -120 -17 -53 0 -104 4 -113 9 -14 6 -18
4 -18 -12 0 -33 26 -45 95 -44 85 2 136 16 165 47 28 30 24 39 -9 17z"/>
<path d="M2236 3276 c-8 -19 -22 -39 -32 -44 -22 -12 -14 -25 9 -16 16 6 23
18 37 67 12 38 3 34 -14 -7z"/>
<path d="M2435 3291 c-3 -12 -18 -35 -32 -51 -25 -30 -20 -41 9 -17 16 12 42
77 34 84 -2 3 -7 -5 -11 -16z"/>
<path d="M460 3290 c0 -5 -14 -25 -31 -45 -32 -37 -26 -48 9 -17 20 16 41 72
28 72 -3 0 -6 -4 -6 -10z"/>
<path d="M1125 3281 c-33 -17 -197 -23 -227 -7 -14 6 -18 4 -18 -11 0 -33 21
-43 93 -43 84 0 139 15 168 46 28 30 23 35 -16 15z"/>
<path d="M236 3268 c-17 -66 -1 -98 50 -98 24 0 39 8 58 31 34 40 35 67 1 34
-46 -47 -113 -24 -98 33 3 12 3 22 0 22 -2 0 -7 -10 -11 -22z"/>
<path d="M1467 3263 c-12 -12 -7 -33 8 -33 17 0 19 9 7 28 -5 7 -11 9 -15 5z"/>
<path d="M1374 3176 c-5 -13 -9 -14 -21 -5 -18 15 -38 -2 -30 -25 7 -18 27
-22 27 -5 0 6 9 8 20 4 23 -7 39 20 22 37 -8 8 -13 7 -18 -6z"/>
<path d="M1293 2944 c-42 -21 -63 -54 -69 -112 -5 -41 0 -58 41 -142 40 -81
63 -136 92 -220 3 -9 12 4 25 35 10 28 41 100 69 162 57 130 64 191 27 238
-41 52 -123 69 -185 39z"/>
<path d="M920 2759 c-57 -23 -100 -85 -100 -144 0 -77 61 -140 202 -211 110
-55 192 -129 239 -217 l34 -62 7 55 c16 109 -9 301 -52 398 -62 139 -219 225
-330 181z"/>
<path d="M1671 2759 c-103 -30 -183 -122 -226 -259 -19 -61 -35 -370 -19 -370
5 0 22 26 39 57 44 85 117 154 216 203 114 58 165 94 196 141 21 33 25 47 21
92 -5 64 -29 100 -84 127 -43 21 -88 24 -143 9z"/>
<path d="M690 2374 c-139 -37 -216 -150 -189 -277 31 -141 170 -209 363 -178
92 15 147 3 188 -41 l28 -30 0 -174 0 -174 111 0 111 0 -4 223 c-4 208 -6 227
-31 303 -89 269 -330 414 -577 348z"/>
<path d="M1813 2375 c-176 -40 -312 -183 -369 -390 -13 -44 -18 -117 -21 -272
l-5 -213 111 0 111 0 0 169 c0 155 2 170 21 195 37 47 53 51 229 51 188 0 217
9 283 85 109 127 48 310 -123 369 -56 19 -169 22 -237 6z"/>
<path d="M1210 1394 c0 -3 34 -44 76 -90 l77 -84 52 57 c29 32 64 73 79 91
l28 32 -156 0 c-86 0 -156 -3 -156 -6z"/>
<path d="M1109 1324 c-30 -31 -118 -110 -196 -175 -129 -108 -173 -153 -160
-165 6 -6 239 181 302 242 50 49 121 142 113 149 -2 3 -29 -21 -59 -51z"/>
<path d="M1030 1291 c-25 -21 -42 -42 -39 -45 3 -3 25 15 49 39 54 55 50 58
-10 6z"/>
<path d="M2152 1227 c-6 -6 -14 -25 -17 -40 -6 -21 -3 -31 11 -42 27 -20 32
-19 49 16 15 28 15 33 0 55 -17 27 -28 30 -43 11z"/>
<path d="M2430 1160 c-29 -45 -341 -410 -351 -410 -3 0 2 50 11 110 9 61 13
110 9 110 -13 0 -37 -91 -53 -196 -32 -206 -14 -271 70 -250 24 6 64 72 78
129 5 22 11 26 29 22 21 -5 55 15 160 96 35 27 67 89 67 131 0 29 -2 31 -15
17 -9 -8 -19 -34 -23 -58 -7 -43 -31 -65 -107 -100 -11 -5 -27 -18 -36 -29
-16 -19 -20 -19 -80 -5 -35 8 -65 16 -66 17 -1 1 50 63 114 137 136 158 183
219 212 277 27 53 14 55 -19 2z m-260 -475 c28 -34 -50 -94 -85 -65 -15 13
-21 61 -8 73 12 13 81 7 93 -8z"/>
<path d="M1746 1098 c-9 -19 -19 -75 -24 -124 -8 -79 -14 -96 -50 -154 -23
-36 -65 -86 -94 -111 -99 -85 -126 -180 -134 -459 -4 -131 -2 -181 5 -170 6 8
11 52 11 96 0 119 27 356 46 403 19 48 68 84 147 106 46 13 63 24 78 48 25 42
24 55 -6 69 -28 13 -31 26 -12 51 11 16 15 17 44 2 54 -27 115 10 159 97 31
62 30 70 -4 28 -30 -35 -56 -37 -69 -4 -8 22 33 57 58 49 23 -8 33 9 14 25
-23 19 -64 -14 -88 -71 -24 -55 -39 -61 -63 -23 -15 22 -16 36 -7 97 5 40 8
74 7 76 -2 2 -10 -12 -18 -31z"/>
<path d="M2096 1094 c-16 -34 -16 -38 0 -55 21 -24 33 -24 50 -1 19 24 17 56
-4 75 -25 23 -26 22 -46 -19z"/>
<path d="M2183 1094 c-17 -36 -17 -36 7 -56 l24 -20 18 22 c21 25 22 43 8 71
-16 29 -39 23 -57 -17z"/>
<path d="M2326 1080 c-39 -44 -48 -64 -15 -34 23 21 63 74 56 74 -3 0 -21 -18
-41 -40z"/>
<path d="M1121 1062 l-20 -39 23 -22 c22 -21 23 -21 39 -3 23 25 21 65 -2 86
-19 17 -20 17 -40 -22z"/>
<path d="M2466 1054 c-16 -34 -16 -38 0 -55 21 -24 33 -24 50 -1 19 24 17 56
-4 75 -25 23 -26 22 -46 -19z"/>
<path d="M935 1020 c-20 -38 -19 -53 4 -74 18 -16 20 -16 40 10 24 30 25 38
11 63 -17 32 -39 33 -55 1z"/>
<path d="M716 922 c-8 -16 -20 -50 -27 -76 -30 -118 -178 -184 -434 -193 -152
-4 -179 2 -202 47 -11 22 -13 17 -13 -46 0 -69 1 -72 28 -82 51 -20 99 -22
197 -12 171 20 275 60 362 143 l53 50 -6 -61 c-8 -72 7 -119 41 -128 24 -6 65
10 65 25 0 18 51 61 73 61 13 0 34 11 47 25 15 16 34 25 55 25 36 0 60 16 69
46 8 25 -16 54 -42 54 -10 0 -27 7 -39 15 -21 15 -23 14 -44 -27 -12 -24 -22
-56 -21 -71 1 -22 -3 -27 -15 -23 -9 4 -29 -6 -49 -24 -41 -35 -64 -38 -90 -9
-15 17 -19 34 -16 90 1 38 8 98 16 134 7 36 12 65 10 65 -2 0 -10 -13 -18 -28z
m232 -165 c4 -22 -24 -33 -43 -17 -12 10 -13 16 -4 27 16 18 43 13 47 -10z
m60 -14 c2 -8 -6 -13 -22 -13 -25 0 -33 10 -19 24 10 10 36 3 41 -11z"/>
<path d="M2503 813 c-12 -32 -26 -89 -32 -128 -6 -38 -14 -83 -16 -100 -4 -22
3 -13 25 30 21 43 32 87 40 153 7 52 10 96 7 98 -2 3 -13 -21 -24 -53z"/>
<path d="M332 848 c-7 -7 -12 -20 -12 -30 0 -10 -6 -18 -14 -18 -19 0 -30 -17
-17 -25 13 -8 54 33 46 45 -4 6 1 13 9 16 17 6 22 24 8 24 -4 0 -13 -5 -20
-12z"/>
<path d="M1165 837 c-8 -13 -18 -37 -21 -54 -6 -29 -4 -32 22 -35 42 -5 41
-31 -2 -54 -20 -10 -44 -35 -54 -54 -21 -41 -59 -77 -115 -111 l-40 -24 32 -3
c49 -5 85 18 113 70 14 26 41 57 59 70 51 34 73 71 79 128 4 39 1 55 -13 70
-24 26 -41 25 -60 -3z"/>
<path d="M2646 759 c-16 -40 -16 -41 9 -71 14 -16 25 -33 25 -37 0 -5 -21 -27
-46 -51 -25 -23 -43 -44 -41 -47 3 -2 24 5 47 17 72 36 104 147 59 204 -11 14
-24 26 -29 26 -4 0 -15 -18 -24 -41z"/>
<path d="M1318 696 c-23 -49 -19 -76 12 -76 35 0 22 -28 -35 -71 -31 -23 -54
-44 -52 -46 3 -2 26 4 52 14 40 15 52 26 71 62 42 84 39 161 -6 161 -14 0 -27
-14 -42 -44z"/>
<path d="M1838 683 c-58 -144 -59 -183 -5 -169 54 13 95 132 63 181 -23 35
-40 31 -58 -12z m22 -78 c16 -20 6 -45 -19 -45 -26 0 -34 15 -21 40 13 24 23
25 40 5z"/>
</g>
</svg>
